<svg width="300" height="300" version="1.1" xmlns="http://www.w3.org/2000/svg" desc="Created with imagetracer.js version 1.2.6" ><path fill="rgb(203,230,225)" stroke="rgb(203,230,225)" stroke-width="1" opacity="1" d="M 296 4 Q 300.9 2.4 299 8 Q 294.1 9.6 296 4 Z " /><path fill="rgb(203,230,225)" stroke="rgb(203,230,225)" stroke-width="1" opacity="1" d="M 96.5 72 Q 98.8 71.3 98 73.5 L 96.5 72 Z " /><path fill="rgb(203,230,225)" stroke="rgb(203,230,225)" stroke-width="1" opacity="1" d="M 132.5 72 L 136 72.5 L 132.5 73 L 132.5 72 Z " /><path fill="rgb(203,230,225)" stroke="rgb(203,230,225)" stroke-width="1" opacity="1" d="M 184 72 L 190 72 L 190 74 L 184 74 L 184 72 Z " /><path fill="rgb(203,230,225)" stroke="rgb(203,230,225)" stroke-width="1" opacity="1" d="M 111.5 73 L 114.5 74 Q 116.2 71.3 118 75.5 L 116.5 75 Q 111 76 111.5 73 Z " /><path fill="rgb(203,230,225)" stroke="rgb(203,230,225)" stroke-width="1" opacity="1" d="M 118.5 73 Q 125.5 72 129 74.5 L 126.5 75 Q 124.8 72.2 118.5 74 L 118.5 73 Z " /><path fill="rgb(203,230,225)" stroke="rgb(203,230,225)" stroke-width="1" opacity="1" d="M 164.5 73 L 166 73.5 Q 165.3 75.8 161.5 75 L 161.5 74 L 164.5 73 Z " /><path fill="rgb(203,230,225)" stroke="rgb(203,230,225)" stroke-width="1" opacity="1" d="M 176.5 73 L 175.5 75 L 170.5 76 L 170.5 75 L 176.5 73 Z " /><path fill="rgb(203,230,225)" stroke="rgb(203,230,225)" stroke-width="1" opacity="1" d="M 108.5 75 L 112 76.5 L 110.5 77 L 108.5 75 Z " /><path fill="rgb(203,230,225)" stroke="rgb(203,230,225)" stroke-width="1" opacity="1" d="M 136.5 75 L 140 75.5 L 136.5 76 L 136.5 75 Z " /><path fill="rgb(203,230,225)" stroke="rgb(203,230,225)" stroke-width="1" opacity="1" d="M 150.5 75 L 154 75.5 L 150.5 76 L 150.5 75 Z " /><path fill="rgb(203,230,225)" stroke="rgb(203,230,225)" stroke-width="1" opacity="1" d="M 180.5 75 L 183 75.5 L 178.5 77 L 178.5 76 L 180.5 75 Z " /><path fill="rgb(203,230,225)" stroke="rgb(203,230,225)" stroke-width="1" opacity="1" d="M 103.5 76 L 107 77.5 L 105.5 77 Q 102.5 77.5 103.5 76 Z " /><path fill="rgb(203,230,225)" stroke="rgb(203,230,225)" stroke-width="1" opacity="1" d="M 191.5 76 L 192 78 L 188.5 79 L 188.5 78 L 191.5 76 Z " /><path fill="rgb(203,230,225)" stroke="rgb(203,230,225)" stroke-width="1" opacity="1" d="M 99.5 77 L 103 78.5 L 101.5 78 L 99 78.5 L 99.5 80 L 97 78.5 L 99.5 77 Z " /><path fill="rgb(203,230,225)" stroke="rgb(203,230,225)" stroke-width="1" opacity="1" d="M 193.5 78 L 197 79.5 L 195.5 80 L 193.5 79 L 192 79.5 L 193.5 78 Z " /><path fill="rgb(203,230,225)" stroke="rgb(203,230,225)" stroke-width="1" opacity="1" d="M 92.5 79 L 94.5 82 L 92.5 81 L 92.5 83 L 90.5 83 L 89 83.5 L 90.5 86 L 88 84.5 L 86.5 87 L 85 87.5 Q 87.3 88.7 84.5 90 L 81 92.5 L 83 95.5 L 82.5 97 L 84 97.5 L 83 98.5 L 83 110 Q 79.7 111.3 81 106.5 L 81 102.5 L 80 100.5 L 80 98.5 L 80 91.5 L 81.5 91 L 81 89.5 L 81.5 88 Q 83.2 90.7 85 86.5 L 84 84 L 91 81.5 L 89 80.5 L 90.5 80 L 92 80.5 L 92.5 79 Z " /><path fill="rgb(203,230,225)" stroke="rgb(203,230,225)" stroke-width="1" opacity="1" d="M 95.5 79 L 96.5 81 L 95.5 79 Z " /><path fill="rgb(203,230,225)" stroke="rgb(203,230,225)" stroke-width="1" opacity="1" d="M 82 80 Q 87.2 78.3 86 82 Q 80.8 83.7 82 80 Z " /><path fill="rgb(203,230,225)" stroke="rgb(203,230,225)" stroke-width="1" opacity="1" d="M 202.5 81 L 203 83 L 208 82 L 207 84.5 L 209.5 90 L 205 86.5 L 203.5 84 L 201 85.5 L 202.5 83 L 201 82.5 L 202.5 81 Z " /><path fill="rgb(203,230,225)" stroke="rgb(203,230,225)" stroke-width="1" opacity="1" d="M 124.5 83 L 142 83.5 L 130.5 84 L 129.5 85 L 124.5 84 L 123 84.5 L 124.5 83 Z " /><path fill="rgb(203,230,225)" stroke="rgb(203,230,225)" stroke-width="1" opacity="1" d="M 148.5 83 L 167.5 83 L 169 84.5 L 167.5 84 L 161.5 85 L 160.5 84 L 148.5 84 L 148.5 83 Z " /><path fill="rgb(203,230,225)" stroke="rgb(203,230,225)" stroke-width="1" opacity="1" d="M 117.5 84 L 122 84.5 L 117.5 85 L 117.5 84 Z " /><path fill="rgb(203,230,225)" stroke="rgb(203,230,225)" stroke-width="1" opacity="1" d="M 170.5 84 Q 175.9 83.1 178 85.5 L 173.5 86 L 170.5 85 L 170.5 84 Z " /><path fill="rgb(203,230,225)" stroke="rgb(203,230,225)" stroke-width="1" opacity="1" d="M 211.5 84 L 212 87.5 L 211 87.5 L 211.5 84 Z " /><path fill="rgb(203,230,225)" stroke="rgb(203,230,225)" stroke-width="1" opacity="1" d="M 109.5 85 L 112 85.5 L 109.5 86 L 109.5 85 Z " /><path fill="rgb(203,230,225)" stroke="rgb(203,230,225)" stroke-width="1" opacity="1" d="M 182 86 L 185 86.5 L 182 88 L 182 86 Z " /><path fill="rgb(203,230,225)" stroke="rgb(203,230,225)" stroke-width="1" opacity="1" d="M 90.5 87 L 91 89 L 94 90.5 L 92.5 90 L 91 90.5 L 91.5 92 Q 90.3 89.8 89 92.5 Q 89.8 94.8 87.5 94 L 87 91.5 Q 85.3 86.7 89.5 88 L 90.5 87 Z M 89 89 L 89 90 L 91 90 L 89 89 Z " /><path fill="rgb(203,230,225)" stroke="rgb(203,230,225)" stroke-width="1" opacity="1" d="M 186.5 87 L 189 87.5 L 185.5 89 L 186.5 87 Z " /><path fill="rgb(203,230,225)" stroke="rgb(203,230,225)" stroke-width="1" opacity="1" d="M 201 88 L 205 89.5 L 203 90.5 L 204.5 93 L 201 90.5 L 201 88 Z " /><path fill="rgb(203,230,225)" stroke="rgb(203,230,225)" stroke-width="1" opacity="1" d="M 217 92 L 219 92.5 L 217 93.5 L 217 92 Z " /><path fill="rgb(203,230,225)" stroke="rgb(203,230,225)" stroke-width="1" opacity="1" d="M 85.5 94 L 88 95.5 L 86.5 96 L 85.5 94 Z " /><path fill="rgb(203,230,225)" stroke="rgb(203,230,225)" stroke-width="1" opacity="1" d="M 222.5 94 L 225 94.5 L 222.5 95 L 222.5 94 Z " /><path fill="rgb(203,230,225)" stroke="rgb(203,230,225)" stroke-width="1" opacity="1" d="M 215.5 96 L 216.5 97 L 229.5 98 L 229.5 96 L 235 100.5 L 231.5 98 L 230 98.5 Q 233.5 100 231 101.5 L 229.5 105 L 226 104 Q 227.1 101.3 224.5 102 L 223 102.5 L 225.5 101 L 229.5 102 L 230.5 100 L 227.5 101 L 227.5 99 L 216.5 98 L 215.5 96 Z " /><path fill="rgb(203,230,225)" stroke="rgb(203,230,225)" stroke-width="1" opacity="1" d="M 210.5 97 L 214 98.5 L 212.5 99 L 210.5 97 Z " /><path fill="rgb(203,230,225)" stroke="rgb(203,230,225)" stroke-width="1" opacity="1" d="M 238.5 101 L 239 102.5 Q 236.8 103.8 239.5 105 Q 241.8 104.3 241 106.5 L 242 108.5 L 240 107.5 L 238.5 105 Q 236.3 105.8 237 103.5 L 238.5 101 Z " /><path fill="rgb(203,230,225)" stroke="rgb(203,230,225)" stroke-width="1" opacity="1" d="M 220.5 103 L 222 103.5 L 218 105.5 L 221 106.5 L 217.5 108 L 217.5 106 Q 214.9 106.7 216 104 L 220.5 103 Z " /><path fill="rgb(203,230,225)" stroke="rgb(203,230,225)" stroke-width="1" opacity="1" d="M 224.5 104 L 225.5 106 L 224 105.5 L 222.5 108 L 222.5 105 L 224.5 104 Z " /><path fill="rgb(203,230,225)" stroke="rgb(203,230,225)" stroke-width="1" opacity="1" d="M 213.5 105 L 215 105.5 L 211 107 L 210.5 114 L 210 106 L 213.5 105 Z " /><path fill="rgb(203,230,225)" stroke="rgb(203,230,225)" stroke-width="1" opacity="1" d="M 228 106 L 231 107.5 Q 234.8 114.8 233 127.5 L 231 138.5 L 228 146.5 L 220.5 155 L 224 150.5 L 230 137.5 L 232 126.5 L 232 116.5 L 229.5 109 L 227.5 122 L 227 117 L 225 116.5 L 228 116 L 227 108.5 L 228 106 Z " /><path fill="rgb(203,230,225)" stroke="rgb(203,230,225)" stroke-width="1" opacity="1" d="M 233.5 107 L 234 109 Q 237 107.8 236 111.5 L 238 111.5 L 236.5 115 L 233 108.5 L 233.5 107 Z " /><path fill="rgb(203,230,225)" stroke="rgb(203,230,225)" stroke-width="1" opacity="1" d="M 117 110 L 121 111.5 L 119.5 112 L 117 111.5 L 117 110 Z " /><path fill="rgb(203,230,225)" stroke="rgb(203,230,225)" stroke-width="1" opacity="1" d="M 240.5 110 L 244 112.5 L 242.5 117 L 240.5 110 Z " /><path fill="rgb(203,230,225)" stroke="rgb(203,230,225)" stroke-width="1" opacity="1" d="M 82.5 111 L 83 129.5 L 82 129.5 L 81.5 116 L 80.5 118 L 80 115 L 82 115 L 82.5 111 Z " /><path fill="rgb(203,230,225)" stroke="rgb(203,230,225)" stroke-width="1" opacity="1" d="M 122.5 111 L 126.5 112 L 128 111.5 Q 128.9 114.5 124.5 113 L 122.5 111 Z " /><path fill="rgb(203,230,225)" stroke="rgb(203,230,225)" stroke-width="1" opacity="1" d="M 217.5 111 L 220 111.5 L 217.5 112 L 217.5 111 Z " /><path fill="rgb(203,230,225)" stroke="rgb(203,230,225)" stroke-width="1" opacity="1" d="M 139.5 113 L 142 113.5 L 139.5 114 L 139.5 113 Z " /><path fill="rgb(203,230,225)" stroke="rgb(203,230,225)" stroke-width="1" opacity="1" d="M 215.5 115 L 216 119.5 L 215 119.5 L 215.5 115 Z " /><path fill="rgb(203,230,225)" stroke="rgb(203,230,225)" stroke-width="1" opacity="1" d="M 238.5 116 L 239 123.5 L 238 123.5 L 238.5 116 Z " /><path fill="rgb(203,230,225)" stroke="rgb(203,230,225)" stroke-width="1" opacity="1" d="M 117.5 118 L 119.5 119 L 123.5 118 L 126 119.5 L 121.5 120 L 118.5 119 L 117.5 118 Z " /><path fill="rgb(203,230,225)" stroke="rgb(203,230,225)" stroke-width="1" opacity="1" d="M 224.5 119 Q 227.5 120.5 224.5 122 L 224.5 119 Z " /><path fill="rgb(203,230,225)" stroke="rgb(203,230,225)" stroke-width="1" opacity="1" d="M 211.5 123 L 212 129.5 L 211 129.5 L 211.5 123 Z " /><path fill="rgb(203,230,225)" stroke="rgb(203,230,225)" stroke-width="1" opacity="1" d="M 226.5 127 L 227 129.5 L 226 129.5 L 226.5 127 Z " /><path fill="rgb(203,230,225)" stroke="rgb(203,230,225)" stroke-width="1" opacity="1" d="M 246 129 L 248 129.5 L 248 136 L 246 135.5 L 246 129 Z " /><path fill="rgb(203,230,225)" stroke="rgb(203,230,225)" stroke-width="1" opacity="1" d="M 211.5 131 L 212 156.5 L 211.5 158 L 218.5 155 L 215.5 159 L 211.5 161 L 210 157.5 L 211 156.5 L 211.5 131 Z " /><path fill="rgb(203,230,225)" stroke="rgb(203,230,225)" stroke-width="1" opacity="1" d="M 224.5 132 L 226 134.5 L 225 134.5 L 224.5 132 Z " /><path fill="rgb(203,230,225)" stroke="rgb(203,230,225)" stroke-width="1" opacity="1" d="M 242.5 135 L 242 136.5 L 243 139.5 L 239 149.5 L 240 151.5 L 238.5 151 Q 236.3 150.3 237 152.5 L 235 151.5 L 238 149.5 L 241 141.5 L 241 136.5 L 242.5 135 Z " /><path fill="rgb(203,230,225)" stroke="rgb(203,230,225)" stroke-width="1" opacity="1" d="M 221.5 139 L 222 140.5 L 220 141.5 L 221.5 139 Z " /><path fill="rgb(203,230,225)" stroke="rgb(203,230,225)" stroke-width="1" opacity="1" d="M 235.5 139 L 237 141.5 L 235 143.5 L 236 144.5 Q 232.9 146.3 234.5 148 L 233 148.5 L 233 150.5 L 231.5 153 L 230 152.5 L 231 154.5 L 226 156.5 Q 233.1 150.1 235.5 139 Z " /><path fill="rgb(203,230,225)" stroke="rgb(203,230,225)" stroke-width="1" opacity="1" d="M 215 144 L 217 144.5 L 216 146.5 L 217 148.5 L 215 147.5 L 215 144 Z " /><path fill="rgb(203,230,225)" stroke="rgb(203,230,225)" stroke-width="1" opacity="1" d="M 219.5 145 L 221 147.5 L 219 146.5 L 219.5 145 Z " /><path fill="rgb(203,230,225)" stroke="rgb(203,230,225)" stroke-width="1" opacity="1" d="M 144.5 148 L 143.5 150 L 144.5 148 Z " /><path fill="rgb(203,230,225)" stroke="rgb(203,230,225)" stroke-width="1" opacity="1" d="M 216.5 150 L 218 151.5 L 214.5 155 L 217 151.5 L 216.5 150 Z " /><path fill="rgb(203,230,225)" stroke="rgb(203,230,225)" stroke-width="1" opacity="1" d="M 80.5 152 L 81 160.5 L 80 160.5 L 80.5 152 Z " /><path fill="rgb(203,230,225)" stroke="rgb(203,230,225)" stroke-width="1" opacity="1" d="M 234.5 153 Q 237.3 154.3 235 155.5 L 236 157.5 L 233 158.5 Q 233.8 160.8 231.5 160 L 232.5 156 L 234 156.5 L 235 154.5 L 234.5 153 Z " /><path fill="rgb(203,230,225)" stroke="rgb(203,230,225)" stroke-width="1" opacity="1" d="M 153.5 154 L 154.5 156 L 152 155.5 L 153.5 154 Z " /><path fill="rgb(203,230,225)" stroke="rgb(203,230,225)" stroke-width="1" opacity="1" d="M 168.5 157 L 171 162.5 L 169 162.5 Q 168.3 164.8 170.5 164 L 170.5 165 L 166.5 164 L 165 164.5 Q 166.1 161.2 163.5 162 L 164.5 160 L 167 161 L 168.5 157 Z " /><path fill="rgb(203,230,225)" stroke="rgb(203,230,225)" stroke-width="1" opacity="1" d="M 228.5 157 L 224.5 162 L 228.5 157 Z " /><path fill="rgb(203,230,225)" stroke="rgb(203,230,225)" stroke-width="1" opacity="1" d="M 229.5 161 L 229.5 163 L 231.5 162 L 230.5 164 L 228.5 163 L 228 165 L 230.5 166 L 252 166 Q 250.7 169.3 255.5 168 L 266.5 174 L 272 174 L 274.5 180 Q 276.8 179.3 276 181.5 L 277 184 L 288 187 L 288 195.5 Q 282.8 197.2 284 204 L 276.5 204 Q 277.3 207.3 272 206 L 272 209 L 266.5 209 L 263.5 211 L 256 212 L 255.5 216 L 242.5 216 L 239.5 218 L 224 221 Q 225.8 226.3 218.5 224 L 216.5 223 L 212 224 L 211.5 228 L 211 224 L 200.5 225 L 200.5 224 L 209.5 223 L 230.5 217 L 252 206 Q 250.9 203.3 253.5 204 L 256 200.5 L 256 198.5 L 256 191 L 254 191 L 254 189 L 252 189 Q 253.1 186.3 250.5 187 L 235.5 180 L 220.5 178 Q 218.8 180.8 212.5 179 L 211 178.5 L 210.5 181 L 210 173.5 L 210.5 171 L 212 170.5 L 211.5 169 L 214.5 170 L 225 164.5 L 224.5 163 L 226.5 163 L 229.5 161 Z " /><path fill="rgb(203,230,225)" stroke="rgb(203,230,225)" stroke-width="1" opacity="1" d="M 139.5 163 L 140 165.5 L 139 165.5 L 139.5 163 Z " /><path fill="rgb(203,230,225)" stroke="rgb(203,230,225)" stroke-width="1" opacity="1" d="M 147.5 163 L 148 165.5 L 147 165.5 L 147.5 163 Z " /><path fill="rgb(203,230,225)" stroke="rgb(203,230,225)" stroke-width="1" opacity="1" d="M 145.5 167 L 146 168.5 L 144 169.5 L 145.5 167 Z " /><path fill="rgb(203,230,225)" stroke="rgb(203,230,225)" stroke-width="1" opacity="1" d="M 148.5 167 L 151 167.5 L 148 169 L 148.5 167 Z " /><path fill="rgb(203,230,225)" stroke="rgb(203,230,225)" stroke-width="1" opacity="1" d="M 123.5 171 L 124.5 173 L 123.5 171 Z " /><path fill="rgb(203,230,225)" stroke="rgb(203,230,225)" stroke-width="1" opacity="1" d="M 121.5 176 L 122.5 178 Q 119.7 178.7 121.5 176 Z " /><path fill="rgb(203,230,225)" stroke="rgb(203,230,225)" stroke-width="1" opacity="1" d="M 163.5 181 L 167 182 L 166.5 184 L 165 183.5 Q 165.7 186.1 163 185 L 162 182.5 L 163.5 181 Z " /><path fill="rgb(203,230,225)" stroke="rgb(203,230,225)" stroke-width="1" opacity="1" d="M 80.5 183 Q 83.5 184.5 80.5 186 L 80.5 183 Z " /><path fill="rgb(203,230,225)" stroke="rgb(203,230,225)" stroke-width="1" opacity="1" d="M 148.5 185 L 149.5 187 L 148.5 185 Z " /><path fill="rgb(203,230,225)" stroke="rgb(203,230,225)" stroke-width="1" opacity="1" d="M 80.5 189 L 81.5 196 L 83 195.5 L 82 200 L 84 200.5 L 83 203 L 85 203.5 L 84.5 205 L 86 205.5 L 85.5 207 Q 88.1 206.2 87 209.5 L 90 211 L 94.5 217 L 98 219.5 L 95.5 218 L 94 218.5 L 96 223 L 98.5 223 L 108.5 230 L 114.5 232 L 130.5 234 L 135.5 236 L 137.5 236 L 151.5 236 L 153.5 235 L 156.5 236 L 163.5 234 L 169.5 234 L 184.5 227 L 192.5 226 Q 195.8 227.8 192 229.5 L 192 232 L 188 232 L 188 233.5 L 186.5 236 L 185.5 234 L 185 236 L 181 235.5 L 181.5 234 L 179 235.5 L 179.5 237 L 176 238 L 175.5 240 L 160.5 240 L 159.5 242 L 136 242 L 135.5 240 L 118.5 240 L 118 238 L 112.5 238 L 112 236 L 109.5 236 L 104.5 235 L 102 236 L 102 232 L 92.5 232 L 92 228 L 88.5 228 L 82.5 221 L 79 220 L 78 216 L 76 216 L 76 212 L 74.5 212 L 75 210.5 L 76 206.5 L 74 203.5 L 77 196 Q 80.3 197.3 79 192.5 L 80.5 189 Z M 93 216 Q 91 219 94 218 L 93 216 Z " /><path fill="rgb(203,230,225)" stroke="rgb(203,230,225)" stroke-width="1" opacity="1" d="M 140.5 189 L 141.5 191 L 140.5 189 Z " /><path fill="rgb(203,230,225)" stroke="rgb(203,230,225)" stroke-width="1" opacity="1" d="M 139.5 191 L 140.5 193 L 139.5 191 Z " /><path fill="rgb(203,230,225)" stroke="rgb(203,230,225)" stroke-width="1" opacity="1" d="M 155.5 194 L 154.5 196 L 155.5 194 Z " /><path fill="rgb(203,230,225)" stroke="rgb(203,230,225)" stroke-width="1" opacity="1" d="M 194.5 225 Q 199 224 200 226.5 L 198.5 226 Q 193.5 227 194.5 225 Z " /><path fill="rgb(203,230,225)" stroke="rgb(203,230,225)" stroke-width="1" opacity="1" d="M 298.5 296 L 299 299 L 296 298.5 L 298 298 L 298.5 296 Z " /><path fill="rgb(203,231,226)" stroke="rgb(203,231,226)" stroke-width="1" opacity="1" d="M 0 0 L 300 0 L 300 300 L 0 300 L 0 0 Z M 296 4 Q 294 10 299 8 Q 301 2 296 4 Z M 97 72 L 98 74 Q 99 71 97 72 Z M 133 72 L 133 73 L 136 73 L 133 72 Z M 184 72 L 184 74 L 190 74 L 190 72 L 184 72 Z M 116 73 L 112 75 L 117 75 L 116 73 Z M 119 73 L 119 74 L 126 74 L 119 73 Z M 165 73 L 164 74 L 127 74 L 126 75 L 111 76 L 106 78 L 106 77 L 104 76 L 104 78 L 95 81 L 92 80 L 93 82 L 92 81 L 89 83 L 91 84 L 89 85 L 89 83 L 84 84 L 85 87 Q 83 91 82 88 L 81 90 L 82 91 L 80 92 L 80 99 L 82 98 L 80 101 L 81 103 L 80 106 L 82 111 Q 84 116 80 115 L 81 118 L 82 116 L 82 184 L 82 186 L 82 196 L 81 189 L 79 193 Q 80 197 77 196 L 74 204 L 76 207 L 75 211 L 75 212 L 76 212 L 76 216 L 78 216 L 79 220 L 83 221 L 89 228 L 92 228 L 93 232 L 102 232 L 102 236 L 105 235 L 110 236 L 112 236 L 113 238 L 118 238 L 119 240 L 136 240 L 136 242 L 160 242 L 161 240 L 176 240 L 176 238 L 180 237 L 179 236 L 182 234 L 181 236 L 185 236 L 184 234 L 185 232 L 186 234 L 187 232 L 187 234 L 188 234 L 188 232 L 192 232 L 192 230 Q 195 228 193 227 L 211 224 L 212 228 L 212 224 L 217 223 L 219 224 Q 226 226 224 221 L 240 218 L 243 216 L 256 216 L 256 212 L 264 211 L 267 209 L 272 209 L 272 206 Q 277 207 277 204 L 284 204 Q 283 197 288 196 L 288 187 L 277 184 L 276 182 Q 277 179 275 180 L 272 174 L 267 174 L 256 168 Q 251 169 252 166 L 231 166 L 228 165 L 227 163 Q 226 160 229 161 L 235 153 L 237 153 L 236 151 L 239 145 L 240 148 L 241 146 L 241 142 L 240 144 L 238 144 Q 241 143 240 139 L 240 137 L 242 142 L 243 140 L 241 134 L 243 134 L 242 132 Q 240 119 244 113 L 243 112 L 240 109 L 242 109 L 241 107 Q 242 104 240 105 L 240 107 Q 237 106 239 105 Q 234 97 225 94 L 222 95 L 219 94 L 219 92 Q 216 91 217 94 L 216 93 L 213 95 L 210 90 L 207 87 L 207 85 L 208 82 L 203 84 L 192 79 L 192 78 L 192 76 L 188 78 L 188 77 L 186 76 L 186 78 L 180 76 L 166 75 L 166 74 L 165 73 Z M 173 74 L 173 75 L 176 75 L 173 74 Z M 181 75 L 181 76 L 183 76 L 181 75 Z M 100 77 L 100 78 L 102 78 L 100 77 Z M 194 78 L 196 80 L 197 80 L 194 78 Z M 82 80 Q 81 84 86 82 Q 87 78 82 80 Z M 203 81 L 201 83 L 203 83 L 203 81 Z M 212 84 L 211 88 L 212 88 L 212 84 Z M 246 129 L 246 136 L 248 136 L 248 130 L 246 129 Z M 239 148 L 237 151 L 239 151 L 240 152 L 239 148 Z M 81 152 L 80 161 L 81 161 L 81 152 Z M 233 158 L 231 160 L 233 160 L 233 158 Z M 299 296 L 298 298 L 296 299 L 299 299 L 299 296 Z " /><path fill="rgb(203,231,226)" stroke="rgb(203,231,226)" stroke-width="1" opacity="1" d="M 205.5 84 L 204.5 86 L 205.5 84 Z " /><path fill="rgb(203,231,226)" stroke="rgb(203,231,226)" stroke-width="1" opacity="1" d="M 232.5 101 L 231.5 103 L 232.5 101 Z " /><path fill="rgb(203,231,226)" stroke="rgb(203,231,226)" stroke-width="1" opacity="1" d="M 222.5 103 Q 226.9 101.5 226 104.5 L 228 107.5 L 227 110.5 L 228 116 L 225 116.5 L 227 117 L 227 126.5 L 223 142.5 Q 219.8 151.3 212.5 156 L 211.5 131 L 210.5 136 L 210 129.5 L 212 129.5 L 211.5 123 L 210.5 128 L 210 116.5 L 211 113.5 L 211 107 L 213.5 107 L 220.5 105 L 222.5 103 Z M 223 105 L 224 107 Q 225 104 223 105 Z M 219 106 L 219 107 L 221 107 L 219 106 Z M 218 111 L 218 112 L 220 112 L 218 111 Z M 216 115 L 215 120 L 216 120 L 216 115 Z M 225 119 L 225 122 Q 228 121 225 119 Z M 215 144 L 215 148 L 217 149 L 216 147 L 217 145 L 215 144 Z " /><path fill="rgb(203,231,226)" stroke="rgb(203,231,226)" stroke-width="1" opacity="1" d="M 232.5 128 L 233 131.5 L 232 131.5 L 232.5 128 Z " /><path fill="rgb(203,231,226)" stroke="rgb(203,231,226)" stroke-width="1" opacity="1" d="M 237.5 134 L 237 135.5 L 236.5 138 L 236 135.5 L 237.5 134 Z " /><path fill="rgb(203,231,226)" stroke="rgb(203,231,226)" stroke-width="1" opacity="1" d="M 224.5 151 L 222.5 154 L 224.5 151 Z " /><path fill="rgb(203,231,226)" stroke="rgb(203,231,226)" stroke-width="1" opacity="1" d="M 231.5 151 L 230.5 153 L 231.5 151 Z " /><path fill="rgb(203,231,226)" stroke="rgb(203,231,226)" stroke-width="1" opacity="1" d="M 136.5 154 L 135.5 156 L 136.5 154 Z " /><path fill="rgb(203,231,226)" stroke="rgb(203,231,226)" stroke-width="1" opacity="1" d="M 144.5 155 L 145.5 157 L 144.5 155 Z " /><path fill="rgb(203,231,226)" stroke="rgb(203,231,226)" stroke-width="1" opacity="1" d="M 163.5 162 L 164.5 164 L 163.5 162 Z " /><path fill="rgb(203,231,226)" stroke="rgb(203,231,226)" stroke-width="1" opacity="1" d="M 145.5 166 L 148 166.5 L 145.5 167 L 145.5 166 Z " /><path fill="rgb(203,231,226)" stroke="rgb(203,231,226)" stroke-width="1" opacity="1" d="M 169.5 176 L 172 177.5 L 170.5 177 L 169.5 176 Z " /><path fill="rgb(203,231,226)" stroke="rgb(203,231,226)" stroke-width="1" opacity="1" d="M 167.5 183 L 168.5 185 L 167.5 183 Z " /><path fill="rgb(203,231,226)" stroke="rgb(203,231,226)" stroke-width="1" opacity="1" d="M 82.5 197 L 83 199.5 L 82 199.5 L 82.5 197 Z " /><path fill="rgb(203,231,226)" stroke="rgb(203,231,226)" stroke-width="1" opacity="1" d="M 87.5 209 L 88.5 211 L 87.5 209 Z " /><path fill="rgb(218,195,168)" stroke="rgb(218,195,168)" stroke-width="1" opacity="1" d="M 125.5 84 L 129.5 85 L 131.5 85 L 156.5 85 L 157.5 84 L 163.5 86 L 167.5 84 Q 172.1 87.1 180 86 Q 178.8 89 182.5 88 L 187.5 90 L 188.5 88 L 192 89 L 192.5 91 L 194 90.5 Q 193.3 92.8 195.5 92 L 197.5 93 L 197.5 91 L 202 93 L 202.5 95 Q 203.8 92.8 205 95.5 L 205 97.5 L 204.5 99 L 203 98.5 Q 203.8 100.8 201.5 100 L 199.5 101 L 199.5 100 L 202 98.5 L 198.5 95 L 173.5 87 L 162.5 87 L 161.5 86 L 125.5 86 L 124.5 87 L 115.5 87 L 98.5 91 L 91.5 97 L 90 96.5 Q 89.3 98.8 91.5 98 L 98.5 100 L 108.5 94 L 118.5 92 L 128.5 92 L 131.5 93 L 135 93.5 L 134.5 95 L 136.5 96 L 138 95.5 Q 137.3 97.8 139.5 97 L 139.5 95 L 145.5 97 L 155.5 97 L 156.5 98 L 158.5 98 L 166.5 96 L 174.5 100 L 176.5 100 Q 180.5 99.5 181 102.5 L 181.5 105 L 182.5 103 L 188 104.5 L 171.5 108 L 162.5 108 L 161.5 109 L 149.5 110 L 148.5 109 L 132.5 109 L 131.5 108 L 129.5 108 L 123 107.5 L 131 106.5 Q 124.3 107.2 121.5 104 L 108.5 103 L 108.5 104 L 114 105.5 L 112.5 106 L 102.5 104 L 89 97.5 L 88.5 96 L 87 96.5 L 87.5 94 L 89.5 95 L 90.5 92 L 92 92.5 L 92.5 91 L 94 91.5 Q 93.3 89.3 95.5 90 L 103.5 87 L 117.5 85 L 119.5 86 L 125.5 84 Z M 167 100 L 162 101 L 163 103 L 169 101 L 171 103 Q 172 98 167 100 Z " /><path fill="rgb(218,195,168)" stroke="rgb(218,195,168)" stroke-width="1" opacity="1" d="M 87.5 87 L 87 88.5 L 86.5 90 L 86 88.5 L 87.5 87 Z " /><path fill="rgb(218,195,168)" stroke="rgb(218,195,168)" stroke-width="1" opacity="1" d="M 206.5 89 L 208 91.5 L 207 91.5 L 206.5 89 Z " /><path fill="rgb(218,195,168)" stroke="rgb(218,195,168)" stroke-width="1" opacity="1" d="M 205.5 92 L 208 93.5 L 206.5 96 L 205.5 92 Z " /><path fill="rgb(218,195,168)" stroke="rgb(218,195,168)" stroke-width="1" opacity="1" d="M 84.5 98 L 88 100.5 L 86.5 101 L 84.5 98 Z " /><path fill="rgb(218,195,168)" stroke="rgb(218,195,168)" stroke-width="1" opacity="1" d="M 207.5 100 L 208 101.5 Q 206 106 204 102.5 L 206 102.5 L 207.5 100 Z " /><path fill="rgb(218,195,168)" stroke="rgb(218,195,168)" stroke-width="1" opacity="1" d="M 89.5 101 L 89.5 104 Q 86.5 102.5 89.5 101 Z " /><path fill="rgb(218,195,168)" stroke="rgb(218,195,168)" stroke-width="1" opacity="1" d="M 83.5 102 L 86 107.5 L 84 106.5 L 83.5 102 Z " /><path fill="rgb(218,195,168)" stroke="rgb(218,195,168)" stroke-width="1" opacity="1" d="M 93.5 103 L 97 104.5 L 95 105.5 L 99.5 107 L 99.5 106 L 98 105.5 L 101.5 105 L 105.5 107 L 119.5 108 L 122 106.5 L 121 109 L 111.5 109 L 100.5 107 L 100.5 108 L 128.5 114 L 130.5 114 L 145.5 114 L 146.5 113 L 147.5 114 L 159.5 114 L 161 113.5 L 161.5 115 L 162 113 L 164 112.5 L 155 111.5 L 165.5 111 L 165.5 113 L 169 112.5 L 167 111.5 L 169 110.5 L 170.5 113 L 179 111.5 L 178.5 110 L 183.5 111 L 185.5 110 L 187.5 110 L 192 108.5 L 189 107.5 Q 188.3 105.3 190.5 106 Q 191.6 108.8 195 108 L 194.5 111 L 194 109 L 192 109.5 L 193 112 L 195 112.5 L 180.5 117 L 179 116.5 Q 179.8 118.8 177.5 118 L 174.5 119 L 170.5 120 Q 169 117.5 167.5 121 L 160.5 123 L 157.5 122 L 142.5 124 L 140.5 124 L 134.5 123 L 131 125.5 L 135 126.5 L 121.5 127 L 102 121.5 L 105.5 121 L 107.5 122 L 107 120.5 L 104.5 117 L 100 119.5 L 100.5 121 L 95 118.5 L 96.5 118 L 98.5 119 L 95.5 115 L 93.5 115 Q 91.3 115.8 92 113.5 L 88 111 L 87 108.5 L 89.5 110 Q 92.8 111.1 92 108.5 L 91.5 107 L 94 108.5 L 95 106.5 L 93 105.5 L 95 104.5 L 93.5 103 Z M 190 110 L 191 112 L 192 112 L 190 110 Z M 137 115 L 136 117 L 135 116 L 134 118 L 139 119 L 141 119 L 146 121 L 151 119 L 153 120 L 155 120 Q 156 118 161 119 L 162 117 L 159 118 L 155 117 L 155 115 Q 150 114 150 117 L 148 117 L 150 116 L 150 115 Q 142 114 138 117 L 137 115 Z M 158 115 L 158 117 L 160 116 L 158 115 Z M 165 115 L 165 117 L 167 116 L 170 117 L 172 116 L 165 115 Z M 120 117 L 116 119 L 119 120 L 129 120 L 124 118 L 122 118 L 120 117 Z " /><path fill="rgb(218,195,168)" stroke="rgb(218,195,168)" stroke-width="1" opacity="1" d="M 201.5 103 L 204 104.5 L 202.5 104 L 201 104.5 L 201.5 106 Q 198.5 104.5 201.5 103 Z " /><path fill="rgb(218,195,168)" stroke="rgb(218,195,168)" stroke-width="1" opacity="1" d="M 192.5 105 L 195 105.5 Q 192.9 108.8 192.5 105 Z " /><path fill="rgb(218,195,168)" stroke="rgb(218,195,168)" stroke-width="1" opacity="1" d="M 197.5 105 L 200 106.5 L 196.5 108 L 196.5 107 L 198 106.5 L 197.5 105 Z " /><path fill="rgb(218,195,168)" stroke="rgb(218,195,168)" stroke-width="1" opacity="1" d="M 115.5 106 L 119 106.5 L 115.5 107 L 115.5 106 Z " /><path fill="rgb(218,195,168)" stroke="rgb(218,195,168)" stroke-width="1" opacity="1" d="M 184.5 107 L 188 108.5 L 185.5 109 L 184.5 107 Z " /><path fill="rgb(218,195,168)" stroke="rgb(218,195,168)" stroke-width="1" opacity="1" d="M 123.5 109 L 126 109.5 L 123.5 110 L 123.5 109 Z " /><path fill="rgb(218,195,168)" stroke="rgb(218,195,168)" stroke-width="1" opacity="1" d="M 197.5 109 L 198.5 111 L 196.5 112 L 196 110.5 L 197.5 109 Z " /><path fill="rgb(218,195,168)" stroke="rgb(218,195,168)" stroke-width="1" opacity="1" d="M 129.5 110 L 136.5 111 L 138.5 111 L 142 111.5 L 134.5 112 L 129.5 111 L 129.5 110 Z " /><path fill="rgb(218,195,168)" stroke="rgb(218,195,168)" stroke-width="1" opacity="1" d="M 171.5 110 L 176 110.5 L 171.5 111 L 171.5 110 Z " /><path fill="rgb(218,195,168)" stroke="rgb(218,195,168)" stroke-width="1" opacity="1" d="M 147.5 111 L 150 111.5 L 147.5 112 L 147.5 111 Z " /><path fill="rgb(218,195,168)" stroke="rgb(218,195,168)" stroke-width="1" opacity="1" d="M 120.5 135 Q 123.5 134.1 122 138.5 L 123 138.5 L 123.5 137 L 124 138.5 L 123 141 L 119 139.5 L 121 136.5 L 120.5 135 Z " /><path fill="rgb(218,195,168)" stroke="rgb(218,195,168)" stroke-width="1" opacity="1" d="M 133.5 164 L 134.5 166 L 133.5 164 Z " /><path fill="rgb(218,195,168)" stroke="rgb(218,195,168)" stroke-width="1" opacity="1" d="M 209.5 196 L 218 199 Q 216.9 201.7 219.5 201 Q 223 202 222 207.5 L 218 214 L 211.5 218 L 212.5 216 L 216 213.5 Q 215.3 211.3 217.5 212 Q 221 211 220 205.5 L 218 201 L 209.5 197 L 208 197.5 L 209.5 196 Z " /><path fill="rgb(203,168,126)" stroke="rgb(203,168,126)" stroke-width="1" opacity="1" d="M 145.5 74 L 155 74.5 L 145.5 75 L 145.5 74 Z " /><path fill="rgb(203,168,126)" stroke="rgb(203,168,126)" stroke-width="1" opacity="1" d="M 122.5 75 L 121.5 77 L 120 76.5 L 122.5 75 Z " /><path fill="rgb(203,168,126)" stroke="rgb(203,168,126)" stroke-width="1" opacity="1" d="M 129.5 75 L 132 75.5 L 129.5 76 L 129.5 75 Z " /><path fill="rgb(203,168,126)" stroke="rgb(203,168,126)" stroke-width="1" opacity="1" d="M 159.5 75 L 163 75.5 L 159.5 76 L 159.5 75 Z " /><path fill="rgb(203,168,126)" stroke="rgb(203,168,126)" stroke-width="1" opacity="1" d="M 114.5 76 L 113.5 78 L 114.5 76 Z " /><path fill="rgb(203,168,126)" stroke="rgb(203,168,126)" stroke-width="1" opacity="1" d="M 171.5 76 L 175 76.5 L 171.5 77 L 171.5 76 Z " /><path fill="rgb(203,168,126)" stroke="rgb(203,168,126)" stroke-width="1" opacity="1" d="M 186.5 78 L 187.5 80 L 186.5 78 Z " /><path fill="rgb(203,168,126)" stroke="rgb(203,168,126)" stroke-width="1" opacity="1" d="M 201.5 84 L 202.5 86 L 201.5 84 Z " /><path fill="rgb(203,168,126)" stroke="rgb(203,168,126)" stroke-width="1" opacity="1" d="M 125.5 86 L 161.5 86 L 162.5 87 L 173.5 87 L 198.5 95 L 202 98.5 L 199 100 Q 200.1 102.7 197.5 102 L 197.5 103 L 205.5 101 L 205.5 102 L 195.5 106 L 194.5 104 L 197 103.5 L 193 102 Q 194.3 105 190.5 104 L 189 103.5 L 188.5 105 L 182.5 103 L 181.5 105 L 178.5 100 L 175.5 99 Q 174 101.5 172.5 98 L 163.5 96 L 158.5 98 L 155.5 97 L 140.5 96 L 138 97 L 137.5 95 L 135.5 95 L 134 94.5 L 134.5 93 L 130.5 92 L 128.5 92 L 118.5 92 L 108.5 94 L 98.5 100 L 95.5 100 L 92 99 Q 90.3 103.1 94.5 102 L 96.5 101 L 96.5 103 L 98.5 104 L 99.5 102 L 102.5 104 L 111.5 105 L 111.5 104 L 108 103.5 L 112.5 103 L 131 106.5 L 123 107.5 L 130.5 109 L 132.5 109 L 148.5 109 L 153.5 110 L 154.5 109 L 167.5 108 L 167.5 109 L 162 109.5 L 164 110.5 L 159.5 111 L 156.5 110 Q 155 113.5 153.5 111 L 150.5 112 L 147.5 111 L 145.5 111 L 142.5 112 L 137.5 110 L 135.5 111 L 134.5 110 L 121 109 L 120.5 107 L 119.5 108 L 111.5 108 L 97.5 105 L 90 102 L 92 98.5 L 90 98 L 90.5 96 L 91.5 97 L 96.5 92 L 110.5 88 L 124.5 87 L 125.5 86 Z M 116 106 L 116 107 L 119 107 L 116 106 Z " /><path fill="rgb(203,168,126)" stroke="rgb(203,168,126)" stroke-width="1" opacity="1" d="M 91.5 92 L 91.5 95 L 89.5 95 L 88 94.5 L 91.5 92 Z " /><path fill="rgb(203,168,126)" stroke="rgb(203,168,126)" stroke-width="1" opacity="1" d="M 202.5 94 L 206.5 97 L 209 95.5 Q 207.2 99.8 205.5 97 L 202.5 94 Z " /><path fill="rgb(203,168,126)" stroke="rgb(203,168,126)" stroke-width="1" opacity="1" d="M 83.5 95 L 85 97.5 L 84 97.5 L 83.5 95 Z " /><path fill="rgb(203,168,126)" stroke="rgb(203,168,126)" stroke-width="1" opacity="1" d="M 86.5 98 L 88.5 101 L 86.5 98 Z " /><path fill="rgb(203,168,126)" stroke="rgb(203,168,126)" stroke-width="1" opacity="1" d="M 208.5 98 L 210 102.5 L 209 102.5 L 207 99.5 L 208.5 98 Z " /><path fill="rgb(203,168,126)" stroke="rgb(203,168,126)" stroke-width="1" opacity="1" d="M 83 99 L 97 108.5 L 94 107.5 L 93.5 109 L 92 108.5 Q 91.3 110.8 93.5 110 L 93.5 111 L 88.5 109 L 88 111 L 92 113.5 Q 91.3 115.8 93.5 115 L 95.5 115 L 99 118.5 L 96.5 120 L 96.5 118 L 94.5 119 L 93.5 117 L 91.5 117 L 84 111.5 L 83 105.5 L 84 102.5 L 83 99 Z " /><path fill="rgb(203,168,126)" stroke="rgb(203,168,126)" stroke-width="1" opacity="1" d="M 159.5 100 L 165.5 101 L 171 100 L 172 103.5 L 168.5 101 L 160.5 104 L 159.5 102 L 161.5 103 L 160.5 101 L 159.5 100 Z " /><path fill="rgb(203,168,126)" stroke="rgb(203,168,126)" stroke-width="1" opacity="1" d="M 207.5 102 L 208 104.5 L 204.5 109 L 209.5 106 L 208.5 108 L 194.5 117 L 169.5 124 Q 168 121.5 166.5 125 L 163 125.5 L 165 126.5 L 153.5 127 L 152.5 128 L 133.5 128 L 133.5 127 L 135 126.5 L 131 125.5 L 136.5 123 L 140.5 124 L 142.5 124 L 157.5 122 L 161.5 122 Q 166.3 122.8 168 120.5 L 167.5 119 L 171.5 119 L 175.5 118 L 177.5 118 L 195 112.5 L 193 112 L 192 109.5 L 194 109 L 194.5 111 L 195 108 L 197.5 108 L 207.5 102 Z M 198 109 L 196 111 L 197 112 L 199 111 L 198 109 Z " /><path fill="rgb(203,168,126)" stroke="rgb(203,168,126)" stroke-width="1" opacity="1" d="M 183.5 105 L 189 106 Q 190.3 109.3 185.5 108 L 180.5 110 Q 173 108.5 169.5 111 L 169.5 110 L 183.5 107 Q 184.8 109.3 186 106.5 Q 182.7 106.6 183.5 105 Z " /><path fill="rgb(203,168,126)" stroke="rgb(203,168,126)" stroke-width="1" opacity="1" d="M 190.5 105 L 193 106.5 L 190.5 108 L 190.5 105 Z " /><path fill="rgb(203,168,126)" stroke="rgb(203,168,126)" stroke-width="1" opacity="1" d="M 178.5 106 L 181 106.5 L 178.5 107 L 178.5 106 Z " /><path fill="rgb(203,168,126)" stroke="rgb(203,168,126)" stroke-width="1" opacity="1" d="M 172.5 107 L 176 107.5 L 172.5 108 L 172.5 107 Z " /><path fill="rgb(203,168,126)" stroke="rgb(203,168,126)" stroke-width="1" opacity="1" d="M 238.5 108 L 237.5 110 L 238.5 108 Z " /><path fill="rgb(203,168,126)" stroke="rgb(203,168,126)" stroke-width="1" opacity="1" d="M 186.5 110 L 185.5 112 L 184 111.5 L 186.5 110 Z " /><path fill="rgb(203,168,126)" stroke="rgb(203,168,126)" stroke-width="1" opacity="1" d="M 189.5 110 L 192 111.5 L 190.5 112 L 189.5 110 Z " /><path fill="rgb(203,168,126)" stroke="rgb(203,168,126)" stroke-width="1" opacity="1" d="M 132.5 115 L 135.5 117 L 136.5 115 L 137.5 117 Q 141.5 114 149.5 115 L 151.5 115 L 155 115.5 L 154.5 117 L 158 117 Q 156.9 114.3 159.5 115 L 159.5 117 L 162 117.5 L 160.5 119 Q 155.8 117.8 154.5 120 L 152.5 120 L 150.5 119 L 145.5 121 L 140.5 119 L 138.5 119 L 134.5 118 L 133 118.5 L 134 116 L 132.5 115 Z " /><path fill="rgb(203,168,126)" stroke="rgb(203,168,126)" stroke-width="1" opacity="1" d="M 165 115 L 172 115.5 L 169.5 117 L 166.5 116 L 165 116.5 L 165 115 Z " /><path fill="rgb(203,168,126)" stroke="rgb(203,168,126)" stroke-width="1" opacity="1" d="M 239.5 115 L 240 118.5 L 239 118.5 L 239.5 115 Z " /><path fill="rgb(203,168,126)" stroke="rgb(203,168,126)" stroke-width="1" opacity="1" d="M 103.5 117 L 107 119.5 L 108 121.5 L 104.5 123 L 104.5 122 L 106 121.5 L 102.5 121 L 101 121.5 L 100.5 120 L 99 120.5 L 103.5 117 Z " /><path fill="rgb(203,168,126)" stroke="rgb(203,168,126)" stroke-width="1" opacity="1" d="M 239.5 120 L 240 126.5 L 239 126.5 L 239.5 120 Z " /><path fill="rgb(203,168,126)" stroke="rgb(203,168,126)" stroke-width="1" opacity="1" d="M 118.5 126 L 121 126.5 L 118.5 127 L 118.5 126 Z " /><path fill="rgb(203,168,126)" stroke="rgb(203,168,126)" stroke-width="1" opacity="1" d="M 118 128 L 124 128 L 124 130.5 L 123 132.5 Q 127.1 134.4 126 141.5 L 121 156 L 118 154.5 L 116 135.5 L 119 130.5 L 118 128 Z M 121 135 Q 118 136 119 140 L 123 141 L 124 138 L 121 135 Z " /><path fill="rgb(203,168,126)" stroke="rgb(203,168,126)" stroke-width="1" opacity="1" d="M 238.5 134 L 239 136.5 L 238 136.5 L 238.5 134 Z " /><path fill="rgb(203,168,126)" stroke="rgb(203,168,126)" stroke-width="1" opacity="1" d="M 234.5 150 L 235 151.5 L 232.5 156 L 232 154.5 L 234.5 150 Z " /><path fill="rgb(203,168,126)" stroke="rgb(203,168,126)" stroke-width="1" opacity="1" d="M 230.5 158 L 229.5 160 L 230.5 158 Z " /><path fill="rgb(203,168,126)" stroke="rgb(203,168,126)" stroke-width="1" opacity="1" d="M 209.5 160 L 210 162.5 L 209 162.5 L 209.5 160 Z " /><path fill="rgb(203,168,126)" stroke="rgb(203,168,126)" stroke-width="1" opacity="1" d="M 149.5 161 L 150.5 163 L 149.5 161 Z " /><path fill="rgb(203,168,126)" stroke="rgb(203,168,126)" stroke-width="1" opacity="1" d="M 209.5 168 Q 211.8 167.3 211 169.5 L 209.5 168 Z " /><path fill="rgb(203,168,126)" stroke="rgb(203,168,126)" stroke-width="1" opacity="1" d="M 208.5 196 L 211.5 199 L 218 201 Q 220.6 203.3 220 209.5 L 216 212 L 213.5 216 L 202.5 221 L 202.5 220 Q 210.9 217.9 215 211.5 Q 216.3 206.3 213.5 205 L 212 204.5 L 212.5 203 L 208 201 L 207.5 203 L 207 201.5 L 209 197.5 L 208.5 196 Z " /><path fill="rgb(203,168,126)" stroke="rgb(203,168,126)" stroke-width="1" opacity="1" d="M 136.5 230 L 139 230.5 L 136.5 231 L 136.5 230 Z " /><path fill="rgb(203,168,126)" stroke="rgb(203,168,126)" stroke-width="1" opacity="1" d="M 152.5 230 L 155 230.5 L 152.5 231 L 152.5 230 Z " /><path fill="rgb(242,245,243)" stroke="rgb(242,245,243)" stroke-width="1" opacity="1" d="M 141.5 75 L 163.5 76 L 164.5 77 L 172.5 77 L 173.5 78 L 184.5 79 L 199.5 84 L 206 89.5 L 205.5 91 L 203.5 88 Q 199.8 86.8 201 90.5 L 204.5 95 L 196.5 90 L 180.5 85 L 168.5 84 L 167.5 83 L 148.5 83 L 148.5 84 L 157 84.5 L 131.5 85 L 131.5 84 L 142 83.5 L 124.5 83 L 101.5 87 L 89.5 93 L 90.5 90 L 89 89.5 L 91 89 L 90.5 87 L 88.5 88 L 89.5 86 Q 96.4 80.9 106.5 79 L 117.5 77 L 125.5 77 L 126.5 76 L 140.5 76 L 141.5 75 Z " /><path fill="rgb(242,245,243)" stroke="rgb(242,245,243)" stroke-width="1" opacity="1" d="M 158.5 84 L 161 84.5 L 158.5 85 L 158.5 84 Z " /><path fill="rgb(242,245,243)" stroke="rgb(242,245,243)" stroke-width="1" opacity="1" d="M 85.5 93 L 86.5 95 L 85.5 93 Z " /><path fill="rgb(242,245,243)" stroke="rgb(242,245,243)" stroke-width="1" opacity="1" d="M 211.5 94 L 213.5 94 L 221 94.5 L 211 97 L 211.5 94 Z " /><path fill="rgb(242,245,243)" stroke="rgb(242,245,243)" stroke-width="1" opacity="1" d="M 207.5 95 L 206.5 97 L 207.5 95 Z " /><path fill="rgb(242,245,243)" stroke="rgb(242,245,243)" stroke-width="1" opacity="1" d="M 214.5 98 Q 222.5 97.3 227 99 Q 228.3 102 224.5 101 L 222.5 103 L 210 106 L 210 99 L 213.5 99 L 214.5 98 Z " /><path fill="rgb(242,245,243)" stroke="rgb(242,245,243)" stroke-width="1" opacity="1" d="M 229.5 100 Q 236.3 102.3 240 107.5 L 235.5 104 L 231 103.5 Q 233.3 102.3 230.5 101 L 229.5 100 Z " /><path fill="rgb(242,245,243)" stroke="rgb(242,245,243)" stroke-width="1" opacity="1" d="M 88.5 101 L 89.5 103 L 88.5 101 Z " /><path fill="rgb(242,245,243)" stroke="rgb(242,245,243)" stroke-width="1" opacity="1" d="M 91.5 103 L 100.5 107 L 111.5 109 L 122.5 109 L 134.5 112 L 163 112.5 L 154.5 113 L 153.5 114 L 151.5 114 L 146.5 113 L 144.5 113 L 142.5 114 L 139.5 113 L 135.5 114 L 134.5 113 L 128 113 L 127.5 111 L 125.5 111 L 121.5 112 L 119.5 111 L 118 111.5 L 118.5 110 L 112.5 111 L 92.5 105 L 91.5 103 Z " /><path fill="rgb(242,245,243)" stroke="rgb(242,245,243)" stroke-width="1" opacity="1" d="M 201.5 104 L 203 104.5 Q 195.7 109.2 184.5 110 L 184.5 109 Q 195 108.5 201.5 104 Z " /><path fill="rgb(242,245,243)" stroke="rgb(242,245,243)" stroke-width="1" opacity="1" d="M 226.5 104 Q 234 104.5 237 109.5 L 236.5 111 L 233.5 107 L 233 108.5 L 236.5 115 L 237.5 112 L 238 133.5 L 236 137.5 L 236.5 139 Q 233.9 138.2 235 141.5 L 229 153.5 L 231 153.5 L 225.5 160 L 222.5 162 L 210.5 168 L 210 159.5 L 211 159.5 L 211.5 161 L 225 151.5 L 231 139.5 L 233 131.5 L 233 112.5 L 229.5 106 Q 225.7 106.5 226.5 104 Z " /><path fill="rgb(242,245,243)" stroke="rgb(242,245,243)" stroke-width="1" opacity="1" d="M 179.5 110 L 183 110.5 L 179.5 111 L 179.5 110 Z " /><path fill="rgb(242,245,243)" stroke="rgb(242,245,243)" stroke-width="1" opacity="1" d="M 239.5 110 L 242 115.5 L 242 132.5 L 239.5 142 L 239 138.5 L 240 137.5 L 240 112.5 L 239.5 110 Z " /><path fill="rgb(242,245,243)" stroke="rgb(242,245,243)" stroke-width="1" opacity="1" d="M 175.5 111 L 178 111.5 L 175.5 112 L 175.5 111 Z " /><path fill="rgb(242,245,243)" stroke="rgb(242,245,243)" stroke-width="1" opacity="1" d="M 165.5 112 L 168 112.5 L 165.5 113 L 165.5 112 Z " /><path fill="rgb(242,245,243)" stroke="rgb(242,245,243)" stroke-width="1" opacity="1" d="M 210.5 139 L 211 156.5 L 210 156.5 L 210.5 139 Z " /><path fill="rgb(242,245,243)" stroke="rgb(242,245,243)" stroke-width="1" opacity="1" d="M 146.5 147 L 150 149.5 L 149 151.5 L 150 154 L 155.5 152 L 155 153.5 L 154 156.5 L 156.5 155 L 158.5 154 L 158 155.5 L 156.5 158 L 145.5 156 L 137.5 158 L 135 154.5 L 136.5 155 L 138.5 156 L 139 153.5 L 138.5 152 L 144 154 L 145 150.5 Q 142.3 148.7 146.5 147 Z M 147 152 L 144 156 L 146 155 L 150 156 L 153 156 L 147 152 Z " /><path fill="rgb(242,245,243)" stroke="rgb(242,245,243)" stroke-width="1" opacity="1" d="M 125.5 156 L 127 160 L 133 160.5 L 129.5 164 L 121.5 165 L 124 161.5 L 125.5 156 Z " /><path fill="rgb(242,245,243)" stroke="rgb(242,245,243)" stroke-width="1" opacity="1" d="M 144.5 159 Q 149.8 157.8 151 160.5 L 146.5 163 L 142 160.5 L 144.5 159 Z " /><path fill="rgb(242,245,243)" stroke="rgb(242,245,243)" stroke-width="1" opacity="1" d="M 161.5 160 L 162.5 162 L 161.5 160 Z " /><path fill="rgb(242,245,243)" stroke="rgb(242,245,243)" stroke-width="1" opacity="1" d="M 226.5 162 L 225.5 164 L 226.5 162 Z " /><path fill="rgb(242,245,243)" stroke="rgb(242,245,243)" stroke-width="1" opacity="1" d="M 223.5 164 L 222.5 166 L 215.5 169 L 215.5 168 L 223.5 164 Z " /><path fill="rgb(242,245,243)" stroke="rgb(242,245,243)" stroke-width="1" opacity="1" d="M 142 165 L 147 165.5 L 145 166 L 144 169.5 L 147.5 171 L 150 170 L 148 166.5 L 149.5 165 L 152 165.5 Q 151.8 170.3 148.5 172 Q 142.8 172.8 142 168.5 L 142 165 Z " /><path fill="rgb(242,245,243)" stroke="rgb(242,245,243)" stroke-width="1" opacity="1" d="M 136.5 166 L 137 168.5 L 136 168.5 L 136.5 166 Z " /><path fill="rgb(242,245,243)" stroke="rgb(242,245,243)" stroke-width="1" opacity="1" d="M 124.5 167 L 127 167.5 L 120.5 169 L 120.5 168 L 124.5 167 Z " /><path fill="rgb(242,245,243)" stroke="rgb(242,245,243)" stroke-width="1" opacity="1" d="M 140.5 169 L 142 174.5 L 138 180.5 L 142 189.5 L 138.5 196 L 138 194.5 L 141 187.5 L 137 179.5 L 141 174.5 L 141 171.5 L 140.5 169 Z " /><path fill="rgb(242,245,243)" stroke="rgb(242,245,243)" stroke-width="1" opacity="1" d="M 153.5 169 L 154 170.5 L 153 174.5 L 156 179.5 L 155 179.5 Q 151.4 177.6 152 171.5 L 153.5 169 Z " /><path fill="rgb(242,245,243)" stroke="rgb(242,245,243)" stroke-width="1" opacity="1" d="M 124.5 171 L 126 171.5 L 120.5 173 L 120.5 172 L 124.5 171 Z " /><path fill="rgb(242,245,243)" stroke="rgb(242,245,243)" stroke-width="1" opacity="1" d="M 134.5 174 L 133.5 176 L 134.5 174 Z " /><path fill="rgb(242,245,243)" stroke="rgb(242,245,243)" stroke-width="1" opacity="1" d="M 137.5 174 L 136.5 176 L 137.5 174 Z " /><path fill="rgb(242,245,243)" stroke="rgb(242,245,243)" stroke-width="1" opacity="1" d="M 144.5 174 L 148.5 175 L 150 174.5 L 152 178.5 L 152 182.5 L 149 186.5 L 149 190.5 L 152 196.5 Q 149.9 198.9 144.5 198 L 142 197 L 145 187.5 L 141 179.5 L 144.5 174 Z " /><path fill="rgb(242,245,243)" stroke="rgb(242,245,243)" stroke-width="1" opacity="1" d="M 124.5 175 L 123.5 177 L 122 176.5 L 124.5 175 Z " /><path fill="rgb(242,245,243)" stroke="rgb(242,245,243)" stroke-width="1" opacity="1" d="M 157.5 176 L 158.5 178 L 157.5 176 Z " /><path fill="rgb(242,245,243)" stroke="rgb(242,245,243)" stroke-width="1" opacity="1" d="M 135.5 177 L 135 178.5 L 134.5 182 L 134 178.5 L 135.5 177 Z " /><path fill="rgb(242,245,243)" stroke="rgb(242,245,243)" stroke-width="1" opacity="1" d="M 131.5 178 L 133 183.5 L 128.5 185 L 125 183.5 L 127 183 Q 125.8 180 129.5 181 L 131.5 178 Z " /><path fill="rgb(242,245,243)" stroke="rgb(242,245,243)" stroke-width="1" opacity="1" d="M 155.5 181 L 156 182.5 L 153 186.5 L 153 190.5 L 156 195.5 L 154 194.5 Q 151.3 192.2 152 186.5 L 155.5 181 Z " /><path fill="rgb(242,245,243)" stroke="rgb(242,245,243)" stroke-width="1" opacity="1" d="M 135.5 183 Q 138.6 184.4 138 189.5 L 136 190.5 L 137 186.5 L 135.5 183 Z " /><path fill="rgb(242,245,243)" stroke="rgb(242,245,243)" stroke-width="1" opacity="1" d="M 158.5 183 L 157.5 185 L 158.5 183 Z " /><path fill="rgb(242,245,243)" stroke="rgb(242,245,243)" stroke-width="1" opacity="1" d="M 156.5 186 L 157 189.5 L 156 189.5 L 156.5 186 Z " /><path fill="rgb(117,129,118)" stroke="rgb(117,129,118)" stroke-width="1" opacity="1" d="M 123.5 75 L 129 75.5 L 123.5 76 L 123.5 75 Z " /><path fill="rgb(117,129,118)" stroke="rgb(117,129,118)" stroke-width="1" opacity="1" d="M 115.5 76 L 120 76.5 L 115.5 77 L 115.5 76 Z " /><path fill="rgb(117,129,118)" stroke="rgb(117,129,118)" stroke-width="1" opacity="1" d="M 109.5 77 L 113 77.5 L 109.5 78 L 109.5 77 Z " /><path fill="rgb(117,129,118)" stroke="rgb(117,129,118)" stroke-width="1" opacity="1" d="M 105.5 78 L 108 78.5 L 105.5 79 L 105.5 78 Z " /><path fill="rgb(117,129,118)" stroke="rgb(117,129,118)" stroke-width="1" opacity="1" d="M 183.5 78 L 186 78.5 L 183.5 79 L 183.5 78 Z " /><path fill="rgb(117,129,118)" stroke="rgb(117,129,118)" stroke-width="1" opacity="1" d="M 101.5 79 L 104 79.5 L 101.5 80 L 101.5 79 Z " /><path fill="rgb(117,129,118)" stroke="rgb(117,129,118)" stroke-width="1" opacity="1" d="M 83.5 93 L 91 99.5 Q 88.7 103.2 86.5 98 Q 84.3 98.8 85 96.5 Q 82 95.5 83.5 93 Z " /><path fill="rgb(117,129,118)" stroke="rgb(117,129,118)" stroke-width="1" opacity="1" d="M 209.5 94 L 210 98 L 207 99.5 Q 207.9 102.9 202.5 101 L 196.5 104 L 197.5 102 L 209 95.5 L 209.5 94 Z " /><path fill="rgb(117,129,118)" stroke="rgb(117,129,118)" stroke-width="1" opacity="1" d="M 84.5 100 L 85.5 102 L 84.5 100 Z " /><path fill="rgb(117,129,118)" stroke="rgb(117,129,118)" stroke-width="1" opacity="1" d="M 92 100 L 95 101.5 L 92 102 L 92 100 Z " /><path fill="rgb(117,129,118)" stroke="rgb(117,129,118)" stroke-width="1" opacity="1" d="M 208.5 101 L 210 103.5 L 207 107.5 L 208.5 108 L 210 107.5 Q 211.3 114.8 206.5 116 L 199.5 120 L 187.5 124 L 172.5 127 L 165.5 127 L 163 125.5 Q 167.3 125.8 168.5 123 L 170.5 123 L 194.5 117 L 206 109.5 L 204.5 109 L 202.5 110 L 202.5 109 L 208 104.5 L 208.5 101 Z " /><path fill="rgb(117,129,118)" stroke="rgb(117,129,118)" stroke-width="1" opacity="1" d="M 96.5 102 Q 99.8 100.9 99 103.5 L 97.5 103 L 96.5 102 Z " /><path fill="rgb(117,129,118)" stroke="rgb(117,129,118)" stroke-width="1" opacity="1" d="M 193.5 103 L 195 103.5 L 189.5 106 L 189 104 L 193.5 103 Z " /><path fill="rgb(117,129,118)" stroke="rgb(117,129,118)" stroke-width="1" opacity="1" d="M 233.5 105 Q 236.8 103.9 236 106.5 L 236.5 108 L 233.5 105 Z " /><path fill="rgb(117,129,118)" stroke="rgb(117,129,118)" stroke-width="1" opacity="1" d="M 181.5 106 L 186 106.5 L 164.5 111 L 162 109.5 L 175.5 108 L 181.5 106 Z " /><path fill="rgb(117,129,118)" stroke="rgb(117,129,118)" stroke-width="1" opacity="1" d="M 156.5 110 L 159 110.5 L 156.5 111 L 156.5 110 Z " /><path fill="rgb(117,129,118)" stroke="rgb(117,129,118)" stroke-width="1" opacity="1" d="M 209.5 117 L 210 159.5 L 209 159.5 L 209.5 117 Z " /><path fill="rgb(117,129,118)" stroke="rgb(117,129,118)" stroke-width="1" opacity="1" d="M 109.5 124 L 118.5 127 L 133 127.5 L 130 128.5 L 131 130.5 L 130 133.5 L 131 134.5 L 131 144.5 L 130.5 146 L 139.5 143 L 148 143 Q 149.5 146.8 146.5 146 L 145 145.5 L 146 147.5 L 142 148.5 L 144 152.5 L 140.5 152 L 137.5 151 L 138 152.5 L 139 154.5 L 137.5 155 L 134.5 153 L 134 154.5 L 137.5 159 L 139.5 158 L 141 158.5 L 141 157 L 145 157 L 144.5 159 L 142.5 158 L 142.5 161 L 146 162.5 L 145.5 165 Q 140.1 166.9 141 163.5 L 139.5 161 L 138 166.5 L 139 168.5 L 137 167.5 L 136.5 162 L 136 169.5 L 137 174.5 L 133 179.5 L 137 187.5 L 135 188.5 L 134.5 187 L 131.5 192 L 129.5 189 Q 125.5 195 126 205.5 L 123.5 209 Q 113.8 209.8 111 203.5 L 111 191.5 L 109 183.5 L 109 132.5 L 111 125.5 L 109.5 124 Z M 118 128 L 119 131 L 116 136 L 118 155 L 121 156 L 126 142 Q 127 134 123 133 L 124 131 L 124 128 L 118 128 Z M 126 155 Q 124 162 120 167 L 122 167 L 122 168 L 120 167 L 119 170 L 123 172 L 120 172 L 121 178 L 124 179 L 124 177 Q 127 178 126 175 L 123 174 L 126 173 Q 127 170 125 171 L 124 169 L 126 170 L 128 166 L 123 167 Q 122 163 130 165 L 134 161 L 133 159 L 129 160 L 126 155 Z M 135 162 L 133 165 L 134 170 L 134 175 Q 130 176 131 180 Q 126 180 124 185 L 126 185 Q 127 183 129 186 L 133 184 L 132 182 L 132 179 L 136 174 L 135 168 L 135 166 L 135 162 Z M 125 179 L 122 180 Q 121 183 124 182 L 126 182 Q 127 178 125 179 Z M 128 186 L 126 188 L 128 188 L 128 186 Z " /><path fill="rgb(117,129,118)" stroke="rgb(117,129,118)" stroke-width="1" opacity="1" d="M 153.5 127 L 164 127.5 L 153.5 128 L 153.5 127 Z " /><path fill="rgb(117,129,118)" stroke="rgb(117,129,118)" stroke-width="1" opacity="1" d="M 151.5 151 Q 154.5 152.5 151.5 154 Q 148.5 152.5 151.5 151 Z " /><path fill="rgb(117,129,118)" stroke="rgb(117,129,118)" stroke-width="1" opacity="1" d="M 157.5 151 L 156.5 153 L 157.5 151 Z " /><path fill="rgb(117,129,118)" stroke="rgb(117,129,118)" stroke-width="1" opacity="1" d="M 145.5 154 L 150 154.5 L 145.5 155 L 145.5 154 Z " /><path fill="rgb(117,129,118)" stroke="rgb(117,129,118)" stroke-width="1" opacity="1" d="M 168.5 155 L 170 155.5 L 167.5 157 L 168.5 155 Z " /><path fill="rgb(117,129,118)" stroke="rgb(117,129,118)" stroke-width="1" opacity="1" d="M 231.5 156 L 227.5 161 L 231.5 156 Z " /><path fill="rgb(117,129,118)" stroke="rgb(117,129,118)" stroke-width="1" opacity="1" d="M 150.5 157 L 153 157.5 L 149.5 159 L 150.5 157 Z " /><path fill="rgb(117,129,118)" stroke="rgb(117,129,118)" stroke-width="1" opacity="1" d="M 152.5 159 L 160 162.5 L 155.5 164 L 156.5 161 L 153 162.5 Q 154.1 165.8 151.5 165 L 149 164.5 L 148 162.5 L 149.5 163 L 152 162.5 L 150 161.5 L 154 160.5 L 152.5 159 Z " /><path fill="rgb(117,129,118)" stroke="rgb(117,129,118)" stroke-width="1" opacity="1" d="M 160.5 159 L 165 159.5 L 160.5 160 L 160.5 159 Z " /><path fill="rgb(117,129,118)" stroke="rgb(117,129,118)" stroke-width="1" opacity="1" d="M 170.5 161 L 171.5 163 L 170.5 161 Z " /><path fill="rgb(117,129,118)" stroke="rgb(117,129,118)" stroke-width="1" opacity="1" d="M 224.5 162 L 223.5 164 L 221.5 165 L 222.5 163 L 224.5 162 Z " /><path fill="rgb(117,129,118)" stroke="rgb(117,129,118)" stroke-width="1" opacity="1" d="M 160.5 164 L 161 169.5 L 160 169.5 L 158 165 L 160.5 164 Z " /><path fill="rgb(117,129,118)" stroke="rgb(117,129,118)" stroke-width="1" opacity="1" d="M 218.5 165 L 220 165.5 L 211.5 169 L 211.5 168 L 218.5 165 Z " /><path fill="rgb(117,129,118)" stroke="rgb(117,129,118)" stroke-width="1" opacity="1" d="M 155.5 166 L 157 168.5 L 155 167.5 L 155.5 166 Z " /><path fill="rgb(117,129,118)" stroke="rgb(117,129,118)" stroke-width="1" opacity="1" d="M 166.5 166 L 169 166.5 L 166.5 167 L 166.5 166 Z " /><path fill="rgb(117,129,118)" stroke="rgb(117,129,118)" stroke-width="1" opacity="1" d="M 140.5 167 Q 142.8 166.3 142 168.5 L 142.5 170 Q 140.3 170.8 141 168.5 L 140.5 167 Z " /><path fill="rgb(117,129,118)" stroke="rgb(117,129,118)" stroke-width="1" opacity="1" d="M 173.5 167 L 175 169.5 L 174 169.5 L 173.5 167 Z " /><path fill="rgb(117,129,118)" stroke="rgb(117,129,118)" stroke-width="1" opacity="1" d="M 154.5 169 L 156 171.5 L 155 171.5 L 154.5 169 Z " /><path fill="rgb(117,129,118)" stroke="rgb(117,129,118)" stroke-width="1" opacity="1" d="M 142.5 171 L 143.5 174 L 146 172.5 L 142 175 L 142.5 171 Z " /><path fill="rgb(117,129,118)" stroke="rgb(117,129,118)" stroke-width="1" opacity="1" d="M 148.5 172 L 149.5 174 L 148.5 172 Z " /><path fill="rgb(117,129,118)" stroke="rgb(117,129,118)" stroke-width="1" opacity="1" d="M 151.5 172 L 152 174.5 L 150 175.5 L 151.5 172 Z " /><path fill="rgb(117,129,118)" stroke="rgb(117,129,118)" stroke-width="1" opacity="1" d="M 159.5 172 L 160 173.5 L 158 174.5 L 159.5 172 Z " /><path fill="rgb(117,129,118)" stroke="rgb(117,129,118)" stroke-width="1" opacity="1" d="M 138.5 174 Q 142 176 137.5 178 L 136 177.5 L 139 175.5 L 138.5 174 Z " /><path fill="rgb(117,129,118)" stroke="rgb(117,129,118)" stroke-width="1" opacity="1" d="M 155.5 174 L 154.5 176 L 155.5 174 Z " /><path fill="rgb(117,129,118)" stroke="rgb(117,129,118)" stroke-width="1" opacity="1" d="M 142.5 176 L 141.5 178 L 140 178.5 L 141 181.5 L 140.5 183 L 143 184.5 L 141 185.5 L 141.5 184 L 139 182.5 L 140 179.5 Q 137.8 178.2 140.5 177 L 142.5 176 Z " /><path fill="rgb(117,129,118)" stroke="rgb(117,129,118)" stroke-width="1" opacity="1" d="M 158.5 176 L 159.5 178 L 158.5 177 L 156 178.5 L 158.5 176 Z " /><path fill="rgb(117,129,118)" stroke="rgb(117,129,118)" stroke-width="1" opacity="1" d="M 161.5 176 Q 164.5 177.5 161.5 179 L 161.5 176 Z " /><path fill="rgb(117,129,118)" stroke="rgb(117,129,118)" stroke-width="1" opacity="1" d="M 153.5 177 L 154.5 179 L 152 178.5 L 153.5 177 Z " /><path fill="rgb(117,129,118)" stroke="rgb(117,129,118)" stroke-width="1" opacity="1" d="M 170.5 177 L 171.5 179 L 170.5 177 Z " /><path fill="rgb(117,129,118)" stroke="rgb(117,129,118)" stroke-width="1" opacity="1" d="M 135 179 Q 138.3 177.9 137 182 Q 133.7 183.1 135 179 Z " /><path fill="rgb(117,129,118)" stroke="rgb(117,129,118)" stroke-width="1" opacity="1" d="M 158.5 179 L 159 181.5 L 158 181.5 L 158.5 179 Z " /><path fill="rgb(117,129,118)" stroke="rgb(117,129,118)" stroke-width="1" opacity="1" d="M 160.5 180 L 161.5 182 L 160.5 180 Z " /><path fill="rgb(117,129,118)" stroke="rgb(117,129,118)" stroke-width="1" opacity="1" d="M 152.5 182 L 153.5 184 L 152.5 182 Z " /><path fill="rgb(117,129,118)" stroke="rgb(117,129,118)" stroke-width="1" opacity="1" d="M 156.5 182 L 158.5 185 L 156.5 182 Z " /><path fill="rgb(117,129,118)" stroke="rgb(117,129,118)" stroke-width="1" opacity="1" d="M 136.5 183 L 139 184.5 L 137.5 185 L 136.5 183 Z " /><path fill="rgb(117,129,118)" stroke="rgb(117,129,118)" stroke-width="1" opacity="1" d="M 151.5 184 L 152.5 186 L 151.5 184 Z " /><path fill="rgb(117,129,118)" stroke="rgb(117,129,118)" stroke-width="1" opacity="1" d="M 154.5 185 Q 156.8 185.8 156 189.5 L 155 189.5 L 154.5 185 Z " /><path fill="rgb(117,129,118)" stroke="rgb(117,129,118)" stroke-width="1" opacity="1" d="M 138 186 L 140 186.5 L 139 189.5 L 139 191.5 L 137.5 195 L 136 192.5 L 139 190.5 L 138 186 Z " /><path fill="rgb(117,129,118)" stroke="rgb(117,129,118)" stroke-width="1" opacity="1" d="M 143.5 186 L 143 187.5 L 142.5 190 L 142 187.5 L 143.5 186 Z " /><path fill="rgb(117,129,118)" stroke="rgb(117,129,118)" stroke-width="1" opacity="1" d="M 157.5 186 L 160 186.5 Q 160.8 188.8 158.5 188 L 157.5 186 Z " /><path fill="rgb(117,129,118)" stroke="rgb(117,129,118)" stroke-width="1" opacity="1" d="M 165 186 L 167 186.5 L 165 187.5 L 165 186 Z " /><path fill="rgb(117,129,118)" stroke="rgb(117,129,118)" stroke-width="1" opacity="1" d="M 149.5 187 L 150 189.5 L 149 189.5 L 149.5 187 Z " /><path fill="rgb(117,129,118)" stroke="rgb(117,129,118)" stroke-width="1" opacity="1" d="M 160.5 189 Q 163.5 190.5 160.5 192 L 160.5 189 Z " /><path fill="rgb(117,129,118)" stroke="rgb(117,129,118)" stroke-width="1" opacity="1" d="M 163 189 L 166 190.5 L 163 190.5 L 163 189 Z " /><path fill="rgb(117,129,118)" stroke="rgb(117,129,118)" stroke-width="1" opacity="1" d="M 134.5 190 L 136 190.5 L 133.5 194 L 132 193.5 L 134 192.5 Q 131.8 191.3 134.5 190 Z " /><path fill="rgb(117,129,118)" stroke="rgb(117,129,118)" stroke-width="1" opacity="1" d="M 151.5 190 L 150.5 192 L 151.5 190 Z " /><path fill="rgb(117,129,118)" stroke="rgb(117,129,118)" stroke-width="1" opacity="1" d="M 141.5 191 L 142.5 193 L 141.5 191 Z " /><path fill="rgb(117,129,118)" stroke="rgb(117,129,118)" stroke-width="1" opacity="1" d="M 208.5 191 L 209 195.5 L 208 195.5 L 208.5 191 Z " /><path fill="rgb(117,129,118)" stroke="rgb(117,129,118)" stroke-width="1" opacity="1" d="M 152.5 192 L 151.5 194 L 152.5 192 Z " /><path fill="rgb(117,129,118)" stroke="rgb(117,129,118)" stroke-width="1" opacity="1" d="M 162.5 192 L 161.5 194 L 162.5 192 Z " /><path fill="rgb(117,129,118)" stroke="rgb(117,129,118)" stroke-width="1" opacity="1" d="M 140.5 193 L 142 197.5 L 141 197.5 L 140.5 193 Z " /><path fill="rgb(117,129,118)" stroke="rgb(117,129,118)" stroke-width="1" opacity="1" d="M 83.5 195 L 84 197.5 L 83 197.5 L 83.5 195 Z " /><path fill="rgb(117,129,118)" stroke="rgb(117,129,118)" stroke-width="1" opacity="1" d="M 145.5 198 L 149 198.5 L 145.5 199 L 145.5 198 Z " /><path fill="rgb(117,129,118)" stroke="rgb(117,129,118)" stroke-width="1" opacity="1" d="M 207.5 198 L 208 201 L 213 203.5 L 212.5 205 L 215 206.5 L 215 211.5 L 209.5 217 L 193.5 224 L 176.5 227 L 176.5 226 Q 192.9 223.4 201 212.5 L 206.5 202 L 208 202.5 L 207.5 198 Z " /><path fill="rgb(117,129,118)" stroke="rgb(117,129,118)" stroke-width="1" opacity="1" d="M 88.5 209 L 89.5 211 L 88.5 209 Z " /><path fill="rgb(117,129,118)" stroke="rgb(117,129,118)" stroke-width="1" opacity="1" d="M 95.5 216 L 96.5 218 L 95.5 216 Z " /><path fill="rgb(117,129,118)" stroke="rgb(117,129,118)" stroke-width="1" opacity="1" d="M 172.5 227 L 175 227.5 L 172.5 228 L 172.5 227 Z " /><path fill="rgb(117,129,118)" stroke="rgb(117,129,118)" stroke-width="1" opacity="1" d="M 123.5 228 L 127 228.5 L 123.5 229 L 123.5 228 Z " /><path fill="rgb(117,129,118)" stroke="rgb(117,129,118)" stroke-width="1" opacity="1" d="M 166.5 228 L 170 228.5 L 166.5 229 L 166.5 228 Z " /><path fill="rgb(117,129,118)" stroke="rgb(117,129,118)" stroke-width="1" opacity="1" d="M 129.5 229 L 135 229.5 L 129.5 230 L 129.5 229 Z " /><path fill="rgb(117,129,118)" stroke="rgb(117,129,118)" stroke-width="1" opacity="1" d="M 158.5 229 L 163 229.5 L 158.5 230 L 158.5 229 Z " /><path fill="rgb(117,129,118)" stroke="rgb(117,129,118)" stroke-width="1" opacity="1" d="M 139.5 230 L 152 230.5 L 139.5 231 L 139.5 230 Z " /><path fill="rgb(44,29,24)" stroke="rgb(44,29,24)" stroke-width="1" opacity="1" d="M 83.5 111 L 91.5 118 L 111 125.5 L 109 132.5 L 109 183.5 L 111 191.5 L 111 203.5 L 115.5 208 L 123.5 209 L 126 205.5 L 126 199.5 L 128 191.5 L 127 189.5 L 128 189.5 L 128 191 Q 131.8 189.5 131 192.5 L 135.5 196 L 136.5 194 L 137 197 Q 140.8 198.5 140 195.5 L 143 187.5 L 141 184.5 L 143 185.5 L 144 190.5 Q 140.5 192.7 141 198 L 148.5 199 L 152 198 L 150 186.5 L 154 180.5 L 149.5 173 L 145.5 174 L 143 173.5 L 142 170.5 L 145.5 173 Q 150.7 173.7 151.5 170 L 152 171.5 L 151 174.5 L 155 179.5 L 155 181.5 L 151 187.5 L 151 190.5 L 154 197 L 157 195.5 Q 153.3 193.2 154 186.5 L 157 182.5 L 157 178.5 Q 153.1 176.9 154 170.5 Q 156.8 168.8 156 163.5 L 155 161.5 L 156 161.5 L 157 167.5 Q 154.2 169.2 155 174.5 Q 158.9 176.1 158 182.5 L 155 186.5 L 155 189.5 L 158.5 196 L 160 193.5 L 157 187.5 L 161 180.5 L 157 174.5 L 157 170.5 L 158.5 167 L 159 169.5 L 158 174.5 L 162 180.5 L 160 183.5 Q 161.2 186.8 165 186 Q 163.9 188.7 166.5 188 L 168 188.5 L 166 185.5 L 168.5 185 L 170 185.5 L 168.5 183 L 167 182.5 Q 168.3 179.8 169.5 182 Q 173.3 183 172 180 L 168.5 179 L 164.5 181 L 160 174.5 L 160 170.5 Q 162.3 169.2 161 164.5 L 158.5 161 L 152.5 159 L 152.5 161 Q 150.9 157 145 157.5 L 149.5 157 L 158 159 L 160 153 L 156.5 154 L 157.5 151 Q 152.9 150.4 151.5 153 L 150 150 Q 153 151 152 148 L 148 146.5 L 148 143 L 139.5 143 L 130.5 146 L 131 144.5 Q 132.3 136.2 130 131.5 L 131 129.5 L 130.5 128 L 163.5 128 L 164.5 127 L 178.5 126 L 199.5 120 L 209.5 113 L 210 116.5 L 209 117.5 L 209 190.5 L 205 206.5 L 195.5 218 L 185.5 224 L 171.5 228 L 158.5 229 L 157.5 230 L 135.5 230 L 134.5 229 L 121.5 228 L 105.5 223 L 90 211.5 Q 84.6 204.9 83 194.5 L 83.5 111 Z M 169 155 L 166 160 L 165 159 Q 159 157 160 161 L 165 165 Q 169 164 171 166 L 174 166 L 170 161 L 170 158 L 170 156 L 169 155 Z M 166 166 L 166 169 L 171 170 Q 176 172 175 169 Q 174 166 173 168 L 166 166 Z M 167 171 L 167 173 L 173 175 L 174 172 L 167 171 Z M 168 175 L 168 177 L 172 179 L 173 176 L 168 175 Z M 160 186 L 158 188 L 161 194 L 163 193 L 160 186 Z M 163 189 L 163 191 L 166 191 L 163 189 Z " /><path fill="rgb(44,29,24)" stroke="rgb(44,29,24)" stroke-width="1" opacity="1" d="M 121.5 162 L 120.5 164 L 121.5 162 Z " /><path fill="rgb(44,29,24)" stroke="rgb(44,29,24)" stroke-width="1" opacity="1" d="M 149.5 162 L 149 163.5 L 148.5 165 L 148 163.5 L 149.5 162 Z " /><path fill="rgb(44,29,24)" stroke="rgb(44,29,24)" stroke-width="1" opacity="1" d="M 153.5 162 L 154 166.5 L 153 166.5 L 153.5 162 Z " /><path fill="rgb(44,29,24)" stroke="rgb(44,29,24)" stroke-width="1" opacity="1" d="M 140.5 163 L 141 166.5 L 140 166.5 L 140.5 163 Z " /><path fill="rgb(44,29,24)" stroke="rgb(44,29,24)" stroke-width="1" opacity="1" d="M 120.5 166 L 123 166.5 L 120.5 167 L 120.5 166 Z " /><path fill="rgb(44,29,24)" stroke="rgb(44,29,24)" stroke-width="1" opacity="1" d="M 120.5 170 L 124 170.5 L 120.5 171 L 120.5 170 Z " /><path fill="rgb(44,29,24)" stroke="rgb(44,29,24)" stroke-width="1" opacity="1" d="M 139.5 171 L 140 174.5 L 138 175.5 L 139.5 171 Z " /><path fill="rgb(44,29,24)" stroke="rgb(44,29,24)" stroke-width="1" opacity="1" d="M 121 174 L 124 174.5 L 121.5 176 L 121 174 Z " /><path fill="rgb(44,29,24)" stroke="rgb(44,29,24)" stroke-width="1" opacity="1" d="M 142.5 175 L 141.5 177 L 142.5 175 Z " /><path fill="rgb(44,29,24)" stroke="rgb(44,29,24)" stroke-width="1" opacity="1" d="M 140.5 178 L 140 179.5 L 139.5 181 L 139 179.5 L 140.5 178 Z " /><path fill="rgb(44,29,24)" stroke="rgb(44,29,24)" stroke-width="1" opacity="1" d="M 125.5 181 L 124.5 183 L 125.5 181 Z " /><path fill="rgb(44,29,24)" stroke="rgb(44,29,24)" stroke-width="1" opacity="1" d="M 136.5 182 L 137.5 184 L 136.5 182 Z " /><path fill="rgb(44,29,24)" stroke="rgb(44,29,24)" stroke-width="1" opacity="1" d="M 139.5 187 L 140 189.5 L 138 190.5 L 139.5 187 Z " /><path fill="rgb(182,204,197)" stroke="rgb(182,204,197)" stroke-width="1" opacity="1" d="M 129.5 74 L 144 74.5 L 133.5 76 L 129.5 75 L 129.5 74 Z " /><path fill="rgb(182,204,197)" stroke="rgb(182,204,197)" stroke-width="1" opacity="1" d="M 156.5 74 L 161 74.5 L 154.5 76 L 154.5 75 L 156.5 74 Z " /><path fill="rgb(182,204,197)" stroke="rgb(182,204,197)" stroke-width="1" opacity="1" d="M 118.5 75 L 121 75.5 L 118.5 76 L 118.5 75 Z " /><path fill="rgb(182,204,197)" stroke="rgb(182,204,197)" stroke-width="1" opacity="1" d="M 166 75 L 170 75.5 L 166 77 L 166 75 Z " /><path fill="rgb(182,204,197)" stroke="rgb(182,204,197)" stroke-width="1" opacity="1" d="M 112.5 76 L 116 77.5 L 114.5 78 L 112.5 76 Z " /><path fill="rgb(182,204,197)" stroke="rgb(182,204,197)" stroke-width="1" opacity="1" d="M 175.5 76 L 178 76.5 L 174.5 78 L 175.5 76 Z " /><path fill="rgb(182,204,197)" stroke="rgb(182,204,197)" stroke-width="1" opacity="1" d="M 182.5 77 L 184 77.5 L 181.5 79 L 182.5 77 Z " /><path fill="rgb(182,204,197)" stroke="rgb(182,204,197)" stroke-width="1" opacity="1" d="M 187.5 78 L 186.5 80 L 187.5 78 Z " /><path fill="rgb(182,204,197)" stroke="rgb(182,204,197)" stroke-width="1" opacity="1" d="M 100.5 79 L 101.5 81 L 100.5 79 Z " /><path fill="rgb(182,204,197)" stroke="rgb(182,204,197)" stroke-width="1" opacity="1" d="M 191.5 79 L 190.5 81 L 191.5 79 Z " /><path fill="rgb(182,204,197)" stroke="rgb(182,204,197)" stroke-width="1" opacity="1" d="M 97.5 80 L 98.5 82 L 97.5 80 Z " /><path fill="rgb(182,204,197)" stroke="rgb(182,204,197)" stroke-width="1" opacity="1" d="M 194.5 80 L 193.5 82 L 194.5 80 Z " /><path fill="rgb(182,204,197)" stroke="rgb(182,204,197)" stroke-width="1" opacity="1" d="M 88.5 85 L 89 87 L 86.5 88 L 88.5 85 Z " /><path fill="rgb(182,204,197)" stroke="rgb(182,204,197)" stroke-width="1" opacity="1" d="M 203.5 85 L 210 90.5 L 208.5 91 L 207 90.5 L 208 92.5 L 206.5 93 L 203 90.5 L 204.5 90 Q 205.8 92.3 207 89.5 L 204 87.5 L 203.5 85 Z " /><path fill="rgb(182,204,197)" stroke="rgb(182,204,197)" stroke-width="1" opacity="1" d="M 85.5 89 L 87.5 92 L 89 91.5 L 86 93.5 L 86.5 92 Q 83.4 92.7 85.5 89 Z " /><path fill="rgb(182,204,197)" stroke="rgb(182,204,197)" stroke-width="1" opacity="1" d="M 83.5 90 L 84 91.5 L 82.5 95 L 82 91.5 L 83.5 90 Z " /><path fill="rgb(182,204,197)" stroke="rgb(182,204,197)" stroke-width="1" opacity="1" d="M 194 90 L 197.5 92 L 199 91.5 Q 197.8 94.3 196.5 92 Q 192.8 93 194 90 Z " /><path fill="rgb(182,204,197)" stroke="rgb(182,204,197)" stroke-width="1" opacity="1" d="M 204.5 93 L 205.5 95 L 204.5 93 Z " /><path fill="rgb(182,204,197)" stroke="rgb(182,204,197)" stroke-width="1" opacity="1" d="M 219.5 95 Q 230.3 94.3 234 100.5 L 234.5 102 Q 235.8 99.8 237 102.5 L 236.5 104 L 235.5 102 L 234.5 103 L 229.5 98 L 216.5 97 L 210.5 99 L 210.5 98 L 219.5 95 Z " /><path fill="rgb(182,204,197)" stroke="rgb(182,204,197)" stroke-width="1" opacity="1" d="M 226.5 101 L 230 101.5 L 224.5 103 L 224.5 102 L 226.5 101 Z " /><path fill="rgb(182,204,197)" stroke="rgb(182,204,197)" stroke-width="1" opacity="1" d="M 205.5 102 L 204.5 104 L 205.5 102 Z " /><path fill="rgb(182,204,197)" stroke="rgb(182,204,197)" stroke-width="1" opacity="1" d="M 236.5 105 L 240 109.5 L 237.5 111 L 237.5 110 Q 239.8 110.8 239 108.5 L 237.5 109 L 235.5 108 L 234 108.5 L 234.5 106 L 237 107.5 L 236.5 105 Z " /><path fill="rgb(182,204,197)" stroke="rgb(182,204,197)" stroke-width="1" opacity="1" d="M 229.5 109 Q 233.3 115.3 232 126.5 L 228 143.5 L 219.5 155 L 211.5 158 L 213.5 155 L 218 151.5 L 220.5 148 L 222 147.5 L 221.5 146 L 223 145.5 L 223 143.5 L 227 129.5 L 227 122.5 Q 230.1 117.6 229.5 109 Z " /><path fill="rgb(182,204,197)" stroke="rgb(182,204,197)" stroke-width="1" opacity="1" d="M 169.5 111 L 170.5 113 L 168 112.5 L 169.5 111 Z " /><path fill="rgb(182,204,197)" stroke="rgb(182,204,197)" stroke-width="1" opacity="1" d="M 238 113 Q 240.7 111.9 240 114.5 L 238 115.5 L 238 113 Z " /><path fill="rgb(182,204,197)" stroke="rgb(182,204,197)" stroke-width="1" opacity="1" d="M 118.5 116 L 120 118.5 L 118 119.5 L 119 117.5 L 118.5 116 Z " /><path fill="rgb(182,204,197)" stroke="rgb(182,204,197)" stroke-width="1" opacity="1" d="M 123.5 116 L 122.5 118 L 123.5 116 Z " /><path fill="rgb(182,204,197)" stroke="rgb(182,204,197)" stroke-width="1" opacity="1" d="M 124.5 118 L 129 119.5 L 126.5 120 L 124.5 118 Z " /><path fill="rgb(182,204,197)" stroke="rgb(182,204,197)" stroke-width="1" opacity="1" d="M 238.5 124 L 240 134.5 L 239 134.5 Q 236.4 130.9 238.5 124 Z " /><path fill="rgb(182,204,197)" stroke="rgb(182,204,197)" stroke-width="1" opacity="1" d="M 82.5 130 L 83 186.5 L 82 186.5 L 82.5 130 Z " /><path fill="rgb(182,204,197)" stroke="rgb(182,204,197)" stroke-width="1" opacity="1" d="M 119 136 L 121 136.5 L 119 137.5 L 119 136 Z " /><path fill="rgb(182,204,197)" stroke="rgb(182,204,197)" stroke-width="1" opacity="1" d="M 122.5 136 L 123 138.5 L 120.5 140 L 120.5 139 Q 123.4 139.7 122.5 136 Z " /><path fill="rgb(182,204,197)" stroke="rgb(182,204,197)" stroke-width="1" opacity="1" d="M 237.5 137 L 239 140.5 L 237 139.5 L 237.5 137 Z " /><path fill="rgb(182,204,197)" stroke="rgb(182,204,197)" stroke-width="1" opacity="1" d="M 236 142 Q 239 140.8 238 144.5 L 236 143.5 L 236 142 Z " /><path fill="rgb(182,204,197)" stroke="rgb(182,204,197)" stroke-width="1" opacity="1" d="M 235.5 145 L 237 147.5 L 235 146.5 L 235.5 145 Z " /><path fill="rgb(182,204,197)" stroke="rgb(182,204,197)" stroke-width="1" opacity="1" d="M 234.5 148 L 236 150.5 L 234 150.5 L 235 152.5 L 233 152.5 L 234 154.5 L 231 155.5 L 232 157.5 Q 230 155.8 228 159.5 L 228.5 161 L 226 160.5 L 234.5 148 Z " /><path fill="rgb(182,204,197)" stroke="rgb(182,204,197)" stroke-width="1" opacity="1" d="M 157.5 157 L 156.5 159 L 157.5 157 Z " /><path fill="rgb(182,204,197)" stroke="rgb(182,204,197)" stroke-width="1" opacity="1" d="M 145.5 158 L 149 158.5 L 145.5 159 L 145.5 158 Z " /><path fill="rgb(182,204,197)" stroke="rgb(182,204,197)" stroke-width="1" opacity="1" d="M 129.5 159 L 133 159.5 L 129.5 160 L 129.5 159 Z " /><path fill="rgb(182,204,197)" stroke="rgb(182,204,197)" stroke-width="1" opacity="1" d="M 166.5 159 L 167 161 L 165 160.5 L 166.5 159 Z " /><path fill="rgb(182,204,197)" stroke="rgb(182,204,197)" stroke-width="1" opacity="1" d="M 153.5 160 L 154.5 162 L 153.5 160 Z " /><path fill="rgb(182,204,197)" stroke="rgb(182,204,197)" stroke-width="1" opacity="1" d="M 132.5 161 L 129.5 165 L 132.5 161 Z " /><path fill="rgb(182,204,197)" stroke="rgb(182,204,197)" stroke-width="1" opacity="1" d="M 135.5 161 L 138 161.5 L 136.5 163 L 134 162.5 L 135.5 161 Z " /><path fill="rgb(182,204,197)" stroke="rgb(182,204,197)" stroke-width="1" opacity="1" d="M 168.5 161 L 173 164.5 Q 173.8 166.8 171.5 166 L 171.5 164 L 166.5 165 L 166.5 164 Q 169.8 165.1 169 162.5 L 168.5 161 Z " /><path fill="rgb(182,204,197)" stroke="rgb(182,204,197)" stroke-width="1" opacity="1" d="M 164.5 162 L 164.5 165 Q 161.5 163.5 164.5 162 Z " /><path fill="rgb(182,204,197)" stroke="rgb(182,204,197)" stroke-width="1" opacity="1" d="M 138.5 163 L 139 166.5 L 138 166.5 L 138.5 163 Z " /><path fill="rgb(182,204,197)" stroke="rgb(182,204,197)" stroke-width="1" opacity="1" d="M 221.5 163 L 222.5 165 L 221.5 163 Z " /><path fill="rgb(182,204,197)" stroke="rgb(182,204,197)" stroke-width="1" opacity="1" d="M 125.5 164 L 128 164.5 L 125.5 165 L 125.5 164 Z " /><path fill="rgb(182,204,197)" stroke="rgb(182,204,197)" stroke-width="1" opacity="1" d="M 134.5 164 L 133.5 166 L 134.5 164 Z " /><path fill="rgb(182,204,197)" stroke="rgb(182,204,197)" stroke-width="1" opacity="1" d="M 154.5 164 Q 156.8 163.3 156 165.5 L 154.5 164 Z " /><path fill="rgb(182,204,197)" stroke="rgb(182,204,197)" stroke-width="1" opacity="1" d="M 219.5 164 L 220.5 166 L 219.5 164 Z " /><path fill="rgb(182,204,197)" stroke="rgb(182,204,197)" stroke-width="1" opacity="1" d="M 209.5 165 L 210 167.5 L 209 167.5 L 209.5 165 Z " /><path fill="rgb(182,204,197)" stroke="rgb(182,204,197)" stroke-width="1" opacity="1" d="M 217.5 165 L 218.5 167 L 217.5 165 Z " /><path fill="rgb(182,204,197)" stroke="rgb(182,204,197)" stroke-width="1" opacity="1" d="M 125.5 166 L 128 166.5 L 125.5 167 L 125.5 166 Z " /><path fill="rgb(182,204,197)" stroke="rgb(182,204,197)" stroke-width="1" opacity="1" d="M 133.5 167 L 134.5 169 Q 131.7 169.7 133.5 167 Z " /><path fill="rgb(182,204,197)" stroke="rgb(182,204,197)" stroke-width="1" opacity="1" d="M 169.5 167 L 168.5 169 L 167 168.5 L 169.5 167 Z " /><path fill="rgb(182,204,197)" stroke="rgb(182,204,197)" stroke-width="1" opacity="1" d="M 212.5 167 L 213.5 169 L 212.5 167 Z " /><path fill="rgb(182,204,197)" stroke="rgb(182,204,197)" stroke-width="1" opacity="1" d="M 172.5 168 L 173.5 170 L 171 169.5 L 172.5 168 Z " /><path fill="rgb(182,204,197)" stroke="rgb(182,204,197)" stroke-width="1" opacity="1" d="M 143.5 170 L 144.5 172 L 143.5 170 Z " /><path fill="rgb(182,204,197)" stroke="rgb(182,204,197)" stroke-width="1" opacity="1" d="M 150.5 170 L 149.5 172 L 150.5 170 Z " /><path fill="rgb(182,204,197)" stroke="rgb(182,204,197)" stroke-width="1" opacity="1" d="M 152.5 170 L 153.5 172 L 152.5 170 Z " /><path fill="rgb(182,204,197)" stroke="rgb(182,204,197)" stroke-width="1" opacity="1" d="M 209.5 170 L 210.5 181 L 211.5 178 Q 213.3 180.8 219.5 179 L 221.5 178 L 222.5 179 L 235.5 180 L 252 187 L 252 189 L 256 191 L 256 198.5 L 255 201.5 L 253.5 204 L 250.5 206 L 235.5 215 L 221.5 220 L 184.5 227 L 169.5 234 L 154.5 236 L 152.5 235 L 151.5 236 L 137.5 236 L 134.5 235 L 114.5 232 L 102.5 227 L 98.5 223 L 96 223 L 93.5 218 Q 91.3 218.8 92 216.5 L 90 214.5 L 90.5 212 L 95 216.5 L 94.5 218 L 97.5 220 L 99 219.5 L 99.5 221 L 101 220.5 Q 100.2 223.1 103.5 222 L 111.5 226 L 127.5 230 L 154.5 231 L 155.5 230 L 164.5 230 L 165.5 229 L 182.5 227 L 198.5 223 Q 210.1 219.8 218 214 L 222 207.5 L 222 203.5 L 218 201 Q 219.1 198.3 216.5 199 L 209 196 L 209.5 170 Z " /><path fill="rgb(182,204,197)" stroke="rgb(182,204,197)" stroke-width="1" opacity="1" d="M 135.5 171 L 136 174 Q 133.3 175.1 134 172.5 L 135.5 171 Z " /><path fill="rgb(182,204,197)" stroke="rgb(182,204,197)" stroke-width="1" opacity="1" d="M 169.5 171 L 168.5 173 L 169.5 171 Z " /><path fill="rgb(182,204,197)" stroke="rgb(182,204,197)" stroke-width="1" opacity="1" d="M 155 172 Q 158 171 157 174 Q 154 175 155 172 Z " /><path fill="rgb(182,204,197)" stroke="rgb(182,204,197)" stroke-width="1" opacity="1" d="M 171 172 Q 174.8 170.5 174 173.5 L 171 173.5 L 171 172 Z " /><path fill="rgb(182,204,197)" stroke="rgb(182,204,197)" stroke-width="1" opacity="1" d="M 153.5 174 L 152.5 176 L 153.5 174 Z " /><path fill="rgb(182,204,197)" stroke="rgb(182,204,197)" stroke-width="1" opacity="1" d="M 134.5 175 L 134.5 178 Q 131.5 176.5 134.5 175 Z " /><path fill="rgb(182,204,197)" stroke="rgb(182,204,197)" stroke-width="1" opacity="1" d="M 122.5 180 L 123.5 182 L 122.5 180 Z " /><path fill="rgb(182,204,197)" stroke="rgb(182,204,197)" stroke-width="1" opacity="1" d="M 161.5 182 L 162.5 184 L 161.5 182 Z " /><path fill="rgb(182,204,197)" stroke="rgb(182,204,197)" stroke-width="1" opacity="1" d="M 140.5 184 L 139.5 186 L 140.5 184 Z " /><path fill="rgb(182,204,197)" stroke="rgb(182,204,197)" stroke-width="1" opacity="1" d="M 137.5 185 L 136.5 187 L 137.5 185 Z " /><path fill="rgb(182,204,197)" stroke="rgb(182,204,197)" stroke-width="1" opacity="1" d="M 82.5 191 L 83 194.5 L 82 194.5 L 82.5 191 Z " /><path fill="rgb(182,204,197)" stroke="rgb(182,204,197)" stroke-width="1" opacity="1" d="M 137.5 195 L 140 195.5 Q 137.9 198.8 137.5 195 Z " /></svg>